<ttFont>
<head>
    <!-- Most of this table will be recalculated by the compiler -->
    <tableVersion value="1.0"/>
    <fontRevision value="1.002"/>
    <checkSumAdjustment value="0xe1bff6b0"/>
    <magicNumber value="0x5f0f3cf5"/>
    <flags value="00000000 00000011"/>
    <unitsPerEm value="1000"/>
    <created value="Thu Jan 14 16:29:20 2016"/>
    <modified value="Thu Jan 14 21:29:20 2016"/>
    <xMin value="-82"/>
    <yMin value="-356"/>
    <xMax value="771"/>
    <yMax value="1145"/>
    <macStyle value="00000000 00000010"/>
    <lowestRecPPEM value="3"/>
    <fontDirectionHint value="2"/>
    <indexToLocFormat value="0"/>
    <glyphDataFormat value="0"/>
  </head>
          <CharString index="0">
            rmoveto
            -13 71 -234 -43 -62 10 -6 87 rlinecurve
            -81 callgsubr
            -165 149 -109 300 151 vhcurveto
            -169 350 -77 callgsubr
          </CharString>
          <CharString index="1">
            307 -72 rmoveto
            -104 callgsubr
            -4 -105 50 -33 164 98 rrcurveto
            endchar
          </CharString>
          <CharString index="2">
            rmoveto
            -130 77 -80 122 -27 callgsubr
            130 -77 80 -122 -28 callsubr
            vhcurveto
            337 99 rmoveto
            -97 -48 -98 -72 -46 -30 40 73 97 48 98 72 46 30 -40 -73 vhcurveto
            endchar
          </CharString>
          <CharString index="3">
            -65 callgsubr
            -96 callsubr
            return
          </CharString>
          <CharString index="4">
            -97 callgsubr
            hintmask 01111100
            -106 callsubr
          </CharString>
          <CharString index="5">
            rmoveto
            hintmask 00111100
            -72 callsubr
            hintmask 01011100
            -90 callsubr
            hintmask 10011100
            -7 callsubr
            hintmask 00111100
            -87 callgsubr
          </CharString>
          <CharString index="6">
            rmoveto
            -100 callgsubr
            389 hlineto
            endchar
          </CharString>
          <CharString index="7">
            rmoveto
            45 139 -160 -3 -34 -137 rlineto
            -76 hmoveto
            44 138 -159 -2 -35 -138 rlineto
            return
          </CharString>
          <CharString index="8">
            -33 callsubr
            hintmask 10101110
            -76 callsubr
            hintmask 01011110
            -90 callgsubr
          </CharString>
          <CharString index="9">
            rmoveto
            -95 callsubr
            406 hlineto
            28 113 rlineto
            endchar
          </CharString>
          <CharString index="10">
            rmoveto
            -89 callgsubr
            -46 -166 87 -66 286 125 rlinecurve
            endchar
          </CharString>
          <CharString index="11">
            -54 -22 -46 -19 -39 -18 rrcurveto
            -22 17 -17 16 14 vvcurveto
            22 29 11 105 -29 vhcurveto
            37 98 rlineto
            -176 24 -95 -65 -70 vvcurveto
            -32 22 -27 29 -24 vhcurveto
            return
          </CharString>
          <CharString index="12">
            76 394 rlineto
            131 hlineto
            21 113 rlineto
            -406 -20 callgsubr
            41 callgsubr
            -76 -394 68 callsubr
            -20 callgsubr
            return
          </CharString>
          <CharString index="13">
            rmoveto
            223 146 -61 69 -142 -91 -95 95 -94 -71 160 -148 rlineto
            return
          </CharString>
          <CharString index="14">
            -98 callgsubr
            endchar
          </CharString>
          <CharString index="15">
            rmoveto
            hintmask 00111110
            -72 callsubr
            hintmask 01011110
            -90 callsubr
            hintmask 10011110
            -7 callsubr
            hintmask 00111110
            -87 callgsubr
          </CharString>
          <CharString index="16">
            rmoveto
            -7 70 -124 -28 -17 11 166 394 rlinecurve
            -67 29 -41 -22 -62 -21 -60 -12 rlinecurve
            1 6 0 6 6 vvcurveto
            43 -26 25 -38 -74 -72 -70 -61 -35 26 -21 40 -10 vhcurveto
            -29 -49 -41 -50 -55 -61 48 -51 rcurveline
            74 72 61 69 39 64 31 2 32 6 31 7 -157 -349 68 -85 253 115 rrcurveto
            return
          </CharString>
          <CharString index="17">
            76 callgsubr
            -93 -208 -85 -206 rrcurveto
            145 hlineto
            18 50 20 50 19 50 rrcurveto
            158 hlineto
            return
          </CharString>
          <CharString index="18">
            rmoveto
            42 -37 35 -87 24 vhcurveto
            79 callgsubr
            11 88 rlineto
            -277 hlineto
            -18 -90 rlineto
            161 hlineto
            -151 -87 return
          </CharString>
          <CharString index="19">
            -86 callgsubr
            -13 -94 rlineto
            -8 callsubr
            endchar
          </CharString>
          <CharString index="20">
            19 90 rlineto
            -163 hlineto
            87 callgsubr
            66 58 71 vvcurveto
            85 -94 45 -184 -28 vhcurveto
            -13 -93 rlineto
            134 17 40 -20 -34 vvcurveto
            return
          </CharString>
          <CharString index="21">
            -156 -37 rmoveto
            -34 -29 14 23 14 10 16 52 29 hvcurveto
            32 -23 26 -20 -19 vvcurveto
            -19 -24 -15 -33 vhcurveto
            endchar
          </CharString>
          <CharString index="22">
            -26 callsubr
            hintmask 10110000
            -80 callgsubr
          </CharString>
          <CharString index="23">
            -65 callsubr
            22 callgsubr
            -24 callsubr
            return
          </CharString>
          <CharString index="24">
            rmoveto
            -101 59 -60 85 117 98 117 135 103 -57 60 -86 -118 -98 -118 -136 vhcurveto
            252 84 rmoveto
            -75 -38 -81 -56 -32 -18 27 53 74 37 83 56 33 18 -27 -54 vhcurveto
            endchar
          </CharString>
          <CharString index="25">
            rmoveto
            -87 callsubr
            return
          </CharString>
          <CharString index="26">
            rmoveto
            49 -41 44 -127 21 vhcurveto
            13 58 164 -1 26 90 rlineto
            -270 hlineto
            return
          </CharString>
          <CharString index="27">
            25 88 rlineto
            -48 hlineto
            22 114 -100 -7 -21 -107 rlineto
            -97 hlineto
            45 65 34 67 38 108 -115 5 rcurveline
            return
          </CharString>
          <CharString index="28">
            -44 -21 48 302 106 hvcurveto
            -134 -5 rlineto
            -373 -139 56 -94 100 hhcurveto
            62 64 32 43 53 hvcurveto
            5 -64 6 -55 -15 -15 -21 -21 -96 -6 -152 11 -19 -132 rcurveline
            return
          </CharString>
          <CharString index="29">
            297 -452 -104 callsubr
            return
          </CharString>
          <CharString index="30">
            12 -28 -30 7 -33 hhcurveto
            -174 -115 -172 -164 -106 53 -46 65 54 56 33 44 50 hvcurveto
            5 -61 10 -56 -14 -14 -21 -21 -100 -7 -155 10 -13 -131 rcurveline
            244 -9 123 49 38 76 rrcurveto
            endchar
          </CharString>
          <CharString index="31">
            -7 callgsubr
            -71 callgsubr
            return
          </CharString>
          <CharString index="32">
            rmoveto
            85 356 -135 -4 -28 -125 rlineto
            -103 -26 -46 42 101 vvcurveto
            124 59 143 86 42 11 -37 -88 -2 callsubr
            10 -46 81 -121 hhcurveto
            -177 -142 -196 -218 hvcurveto
            return
          </CharString>
          <CharString index="33">
            rmoveto
            -19 callsubr
            -158 125 -109 298 133 hvcurveto
            -40 callsubr
            endchar
          </CharString>
          <CharString index="34">
            -69 callsubr
            -78 callsubr
            return
          </CharString>
          <CharString index="35">
            143 10 -37 callsubr
            rlinecurve
            -197 hlineto
            return
          </CharString>
          <CharString index="36">
            -6 -42 rlineto
            100 -19 49 -22 -21 vvcurveto
            -21 -43 -18 -154 18 vhcurveto
            return
          </CharString>
          <CharString index="37">
            -82 callsubr
            10 callgsubr
            71 callsubr
          </CharString>
          <CharString index="38">
            rmoveto
            438 hlineto
            17 86 rlineto
            -438 hlineto
            return
          </CharString>
          <CharString index="39">
            69 324 -135 -8 -93 -130 56 -37 -35 -168 rlineto
            return
          </CharString>
          <CharString index="40">
            -72 callgsubr
            hintmask 10111100
            -9 callsubr
            hintmask 11011100
            -77 callsubr
          </CharString>
          <CharString index="41">
            rmoveto
            21 18 -9 -20 12 hvcurveto
            -178 -251 rlineto
            141 48 139 79 vhcurveto
            -57 -408 rmoveto
            -23 -18 10 22 -12 hvcurveto
            180 253 rlineto
            1 0 -1 -1 vvcurveto
            -145 -48 -139 -79 vhcurveto
            -16 -120 rmoveto
            170 122 181 219 hvcurveto
            hintmask 10011100
            62 -11 49 -19 38 vhcurveto
            60 85 rlineto
            hintmask 01101100
            -81 51 -44 -64 rlineto
            18 -31 -36 9 -41 hhcurveto
            -170 -122 -181 -219 -61 10 -49 19 -37 hvcurveto
            -62 -87 rlineto
            hintmask 10101100
            80 -51 47 65 rlineto
            -19 30 37 -9 42 hhcurveto
            endchar
          </CharString>
          <CharString index="42">
            rmoveto
            94 71 -160 148 rlineto
            -9 hlineto
            return
          </CharString>
          <CharString index="43">
            -60 callsubr
            -86 -96 -74 -100 -59 -100 rlinecurve
            return
          </CharString>
          <CharString index="44">
            -30 -43 81 -65 hhcurveto
            -56 -62 -60 -79 -48 hvcurveto
            67 -38 rlineto
            48 33 23 25 16 hhcurveto
            return
          </CharString>
          <CharString index="45">
            hintmask 11110110
            48 callsubr
            hintmask 11101110
            -83 callgsubr
            hintmask 11110110
            -48 callsubr
            return
          </CharString>
          <CharString index="46">
            38 199 rlineto
            hintmask 11010000
            -6 callsubr
            hintmask 10110000
            -20 callsubr
          </CharString>
          <CharString index="47">
            rmoveto
            60 104 73 110 85 99 19 90 rcurveline
            -314 hlineto
            -22 -92 rlineto
            201 hlineto
            1 -4 return
          </CharString>
          <CharString index="48">
            -72 -14 -30 -28 -44 hhcurveto
            -40 -34 22 108 21 hvcurveto
            return
          </CharString>
          <CharString index="49">
            -104 callsubr
            hintmask 11110100
            -39 callsubr
            hintmask 11101100
            29 callgsubr
            hintmask 11110100
            -86 callsubr
          </CharString>
          <CharString index="50">
            -92 62 -48 89 vhcurveto
            16 79 rmoveto
            -31 -33 20 55 5 0 5 1 4 hvcurveto
            return
          </CharString>
          <CharString index="51">
            rmoveto
            hintmask 10010000
            265 63 79 83 76 vvcurveto
            hintmask 11001000
            64 -61 50 35 vvcurveto
            24 28 16 107 4 vhcurveto
            22 98 rlineto
            hintmask 10100000
            -75 13 -38 22 29 vvcurveto
            hintmask 10001000
            46 117 29 92 vvcurveto
            69 -69 52 -195 86 vhcurveto
            -57 -101 rlineto
            123 -52 57 -38 -41 vvcurveto
            hintmask 10100000
            -56 -111 -32 -75 vvcurveto
            -35 23 -33 65 -24 vhcurveto
            hintmask 11001000
            -90 -24 -34 -48 -41 vvcurveto
            hintmask 10010000
            -49 56 -57 -34 vvcurveto
            -41 -71 -28 -166 -28 vhcurveto
            endchar
          </CharString>
          <CharString index="52">
            100 100 -37 67 -86 hhcurveto
            -74 -78 -45 -78 -22 7 -21 10 -20 hvcurveto
            -33 -26 -46 -30 -61 -37 29 -62 rcurveline
            return
          </CharString>
          <CharString index="53">
            6 callsubr
            488 62 -101 callgsubr
            return
          </CharString>
          <CharString index="54">
            24 126 -271 -3 339 376 20 121 rlineto
            -427 hlineto
            -24 -126 269 3 -344 -376 -22 -121 rlineto
            endchar
          </CharString>
          <CharString index="55">
            -64 -330 rlineto
            -39 -35 -36 -20 -27 hhcurveto
            -31 return
          </CharString>
          <CharString index="56">
            -70 callgsubr
            hintmask 11101110
            -79 callsubr
            hintmask 11011110
            12 callsubr
          </CharString>
          <CharString index="57">
            rmoveto
            11 hlineto
            hintmask 11111000
            -49 -253 rlineto
            -68 hlineto
            hintmask 10111000
            36 85 35 85 35 83 rrcurveto
            -87 -504 rmoveto
            260 hlineto
            29 116 rlineto
            -149 78 callsubr
            112 hlineto
            19 96 rlineto
            -113 hlineto
            29 145 rlineto
            143 hlineto
            23 116 rlineto
            -353 hlineto
            -98 -206 -100 -208 76 callgsubr
            rrcurveto
            138 hlineto
            hintmask 11111000
            22 49 21 51 22 50 rrcurveto
            90 hlineto
            endchar
          </CharString>
          <CharString index="58">
            477 545 -89 callsubr
            rlineto
            return
          </CharString>
          <CharString index="59">
            -44 callgsubr
            -96 16 callsubr
            return
          </CharString>
          <CharString index="60">
            rmoveto
            45 138 -164 -1 -34 -138 rlineto
            return
          </CharString>
          <CharString index="61">
            670 -84 callsubr
            return
          </CharString>
          <CharString index="62">
            72 callgsubr
            145 107 241 122 return
          </CharString>
          <CharString index="63">
            -11 121 -33 callgsubr
            return
          </CharString>
          <CharString index="64">
            728 -93 callgsubr
            return
          </CharString>
          <CharString index="65">
            -69 callgsubr
            40 callgsubr
            return
          </CharString>
          <CharString index="66">
            -38 callsubr
            endchar
          </CharString>
          <CharString index="67">
            -10 72 rlineto
            -228 -33 -46 24 100 vvcurveto
            101 60 91 78 43 15 -25 -59 -1 vhcurveto
            return
          </CharString>
          <CharString index="68">
            -85 -48 -21 -35 -40 vvcurveto
            -56 53 -39 92 vhcurveto
            return
          </CharString>
          <CharString index="69">
            -11 -95 rlineto
            237 -16 88 76 76 vvcurveto
            return
          </CharString>
          <CharString index="70">
            -10 208 -13 204 -14 203 return
          </CharString>
          <CharString index="71">
            39 callsubr
            470 53 -61 callgsubr
            return
          </CharString>
          <CharString index="72">
            456 425 -82 callsubr
            return
          </CharString>
          <CharString index="73">
            11 83 -136 -8 -20 -149 -23 -114 -46 -240 rlinecurve
            135 hlineto
            return
          </CharString>
          <CharString index="74">
            rmoveto
            -30 callgsubr
            return
          </CharString>
          <CharString index="75">
            hlineto
            -120 -620 rlineto
            return
          </CharString>
          <CharString index="76">
            -5 callgsubr
            9 callgsubr
            hintmask 10001100
            return
          </CharString>
          <CharString index="77">
            120 138 104 138 120 return
          </CharString>
          <CharString index="78">
            rmoveto
            -2 -81 -10 -75 -24 -80 58 -21 rcurveline
            65 78 44 78 17 106 rrcurveto
            return
          </CharString>
          <CharString index="79">
            -163 -116 -153 -173 return
          </CharString>
          <CharString index="80">
            12 -21 30 -21 30 -21 611 -20 hstemhm
            22 579 hintmask 10011000
            349 -9 rmoveto
            hintmask 00111000
            151 18 -121 298 222 313 rlineto
            -152 hlineto
            -218 -311 rlineto
            -89 311 rmoveto
            hintmask 01011000
            -120 -620 rlineto
            143 hlineto
            120 620 rlineto
            return
          </CharString>
          <CharString index="81">
            137 hlineto
            39 117 66 236 65 267 rrcurveto
            -140 hlineto
            return
          </CharString>
          <CharString index="82">
            3 callgsubr
            -58 -60 -32 -61 -59 vhcurveto
            return
          </CharString>
          <CharString index="83">
            61 -69 142 92 rlineto
            return
          </CharString>
          <CharString index="84">
            -68 -55 -142 -76 8 callgsubr
            return
          </CharString>
          <CharString index="85">
            91 216.5 17 callsubr
            return
          </CharString>
          <CharString index="86">
            hstemhm
            30 140 139 132 return
          </CharString>
          <CharString index="87">
            -62 282 -149 -6 111 -410 -40 -207 rlineto
            endchar
          </CharString>
          <CharString index="88">
            144 12 -48 56 -107 hhcurveto
            -173 -144 -156 -183 return
          </CharString>
          <CharString index="89">
            -76 callgsubr
            endchar
          </CharString>
          <CharString index="90">
            -46 callgsubr
            -21 callsubr
            return
          </CharString>
          <CharString index="91">
            -13 62 rlineto
            -92 -26 -36 13 29 vvcurveto
            return
          </CharString>
          <CharString index="92">
            rmoveto
            -26 -21 23 56 91 56 119 59 15 29 -4 -11 31 hvcurveto
            -42 -219 rlineto
            -32 -36 -38 -23 -27 hhcurveto
            return
          </CharString>
          <CharString index="93">
            0 198 -177 19 callgsubr
            hstemhm
            292.5 72 hintmask 01110000
            return
          </CharString>
          <CharString index="94">
            121 620 rlineto
            -135 hlineto
            -65 -355 rlineto
            -4 hlineto
            return
          </CharString>
          <CharString index="95">
            -145 232 -62 -75 vvcurveto
            -41 -71 -23 -204 58 vhcurveto
            return
          </CharString>
          <CharString index="96">
            93 callgsubr
            rlineto
            -56 -14 -6 3 18 vvcurveto
            return
          </CharString>
          <CharString index="97">
            rmoveto
            164 hlineto
            24 122 rlineto
            -473 hlineto
            -24 -122 rlineto
            163 hlineto
            -96 -498 83 callgsubr
            return
          </CharString>
          <CharString index="98">
            63 102 47 119 52 vvcurveto
            24 -58 22 -31 -11 -13 -9 -16 -13 vhcurveto
            return
          </CharString>
          <CharString index="99">
            229 -24 90 76 69 vvcurveto
            return
          </CharString>
          <CharString index="100">
            2 -52 1 -52 1 -51 rrcurveto
            return
          </CharString>
          <CharString index="101">
            271 421 61 callsubr
            -160 -279 rlineto
            return
          </CharString>
          <CharString index="102">
            86 77 -21 callgsubr
            return
          </CharString>
          <CharString index="103">
            rmoveto
            -263 -191 -95 -151 -168 vvcurveto
            -124 54 -132 136 -165 vhcurveto
            108 76 rlineto
            -121 139 -41 106 102 vvcurveto
            134 61 120 237 165 vhcurveto
            endchar
          </CharString>
          <CharString index="104">
            482 559 -81 callsubr
            return
          </CharString>
          <CharString index="105">
            -2 vhcurveto
            135 2 84 callgsubr
            return
          </CharString>
          <CharString index="106">
            0 8 -2 3 -4 -4 -2 -3 49 callgsubr
            0 -9 2 -3 4 4 2 3 49 callgsubr
            return
          </CharString>
          <CharString index="107">
            -32 callgsubr
            hstem
            36 return
          </CharString>
          <CharString index="108">
            -170 127 80 122 350 -20 29 -20 return
          </CharString>
          <CharString index="109">
            43 -130 132 -16 192 109 return
          </CharString>
          <CharString index="110">
            -14 114 308 114 return
          </CharString>
          <CharString index="111">
            -13 123 399 123 return
          </CharString>
          <CharString index="112">
            11 -21 31 -21 31 -21 496 121 hstemhm
            386 144 return
          </CharString>
          <CharString index="113">
            136 hstem
            105 27 callsubr
            vstem
            return
          </CharString>
          <CharString index="114">
            72.5 138 hstem
            return
          </CharString>
          <CharString index="115">
            -159 -168 -222 -276 return
          </CharString>
          <CharString index="116">
            0 113 394 113 return
          </CharString>
          <CharString index="117">
            18 callsubr
            23 -20 hstemhm
            87 525 hintmask 10110000
            return
          </CharString>
          <CharString index="118">
            0 30 callgsubr
            268 30 callgsubr
            return
          </CharString>
          <CharString index="119">
            243 -9 117 47 40 80 rrcurveto
            endchar
          </CharString>
          <CharString index="120">
            rmoveto
            113 73 -126 192 195 190 -86 86 -194 -202 -28 -139 rlineto
            376 -200 rmoveto
            112 70 -122 197 return
          </CharString>
          <CharString index="121">
            -10 callgsubr
            hintmask 01011110
            return
          </CharString>
          <CharString index="122">
            rlineto
            -143 hlineto
            return
          </CharString>
          <CharString index="123">
            -163 -69 callsubr
            return
          </CharString>
          <CharString index="124">
            89.5 return
          </CharString>
          <CharString index="125">
            21 19 callgsubr
            return
          </CharString>
          <CharString index="126">
            46 callsubr
            -31 -168 rlineto
            108 -312 46 callsubr
            -32 -168 rlineto
            endchar
          </CharString>
          <CharString index="127">
            -13 129 390 127 61 callgsubr
            return
          </CharString>
          <CharString index="128">
            -220 79 160 -21 113 86 return
          </CharString>
          <CharString index="129">
            -167 94 -87 172 32 vhcurveto
            -24 -105 rlineto
            return
          </CharString>
          <CharString index="130">
            rmoveto
            326 hlineto
            22 110 rlineto
            -186 hlineto
            127 660 rlineto
            186 hlineto
            22 110 rlineto
            -325 hlineto
            endchar
          </CharString>
          <CharString index="131">
            0 callsubr
            513 vstem
            return
          </CharString>
          <CharString index="132">
            377 -48 134 212 225 vvcurveto
            return
          </CharString>
          <CharString index="133">
            -178 -146 -192 -212 return
          </CharString>
          <CharString index="134">
            141 170 127 return
          </CharString>
          <CharString index="135">
            hstem
            55 145 vstem
            return
          </CharString>
          <CharString index="136">
            102 -47 100 67 99 return
          </CharString>
          <CharString index="137">
            -65 callsubr
            hintmask 11011000
            22 callgsubr
            rlineto
            hintmask 11101000
            -24 callsubr
            return
          </CharString>
          <CharString index="138">
            rmoveto
            261 203 34 139 -186 216 -100 -95 163 -181 -250 -173 rlineto
            endchar
          </CharString>
          <CharString index="139">
            18 callsubr
            22 -20 hstemhm
            19 554 hintmask 10110000
            return
          </CharString>
          <CharString index="140">
            -7 115 298 107 -106 110 0 -20 hstemhm
            8 142 69 130 102 127 hintmask 11001110
            return
          </CharString>
          <CharString index="141">
            vstem
            452 hmoveto
            -36 callgsubr
            return
          </CharString>
          <CharString index="142">
            9 callsubr
            hstem
            19 return
          </CharString>
          <CharString index="143">
            -140 -69 -128 -134 5 vhcurveto
            return
          </CharString>
          <CharString index="144">
            -45 callgsubr
            hstemhm
            55 142 113 142 hintmask 01011100
            return
          </CharString>
          <CharString index="145">
            35 callsubr
            525 vstem
            return
          </CharString>
          <CharString index="146">
            -15 120 291 107 hstem
            125 140 vstem
            return
          </CharString>
          <CharString index="147">
            0 122 498 -20 hstem
            return
          </CharString>
          <CharString index="148">
            -14 120 -85 -21 514 120 -14 -20 hstemhm
            46 149 197 149 hintmask 10101100
            return
          </CharString>
          <CharString index="149">
            rmoveto
            -57 24 -75 -49 -56 -84 -15 -88 rlinecurve
            172 2 -5 61 11 75 25 59 rlinecurve
            return
          </CharString>
          <CharString index="150">
            0 -9 -7 -7 -9 -9 -7 6 49 callgsubr
            return
          </CharString>
          <CharString index="151">
            53 callgsubr
            hstem
            39 538 vstem
            return
          </CharString>
          <CharString index="152">
            21 -21 498 122 hstem
            86 497 vstem
            return
          </CharString>
          <CharString index="153">
            rmoveto
            31 168 rlineto
            -170 hlineto
            return
          </CharString>
          <CharString index="154">
            hstemhm
            39 138 148 110 return
          </CharString>
          <CharString index="155">
            463 92 callsubr
            return
          </CharString>
          <CharString index="156">
            -14 111 -66 -21 401 111 hstemhm
            37 139 200 139 hintmask 10111000
            return
          </CharString>
          <CharString index="157">
            111 57 callsubr
            -169 -4 4 -109 -12 -84 -60 return
          </CharString>
          <CharString index="158">
            -124 205 -112 -70 122 -197 -195 -183 rlineto
            endchar
          </CharString>
          <CharString index="159">
            108 144 107 vstem
            return
          </CharString>
          <CharString index="160">
            0 116 34 101 12 96 145 116 hstemhm
            -41 646 hintmask 10111000
            return
          </CharString>
          <CharString index="161">
            hintmask 000000000000000100000100000000000000000000000000
            return
          </CharString>
          <CharString index="162">
            -73 92 -46 174 82 vhcurveto
            return
          </CharString>
          <CharString index="163">
            110 660 110 hstem
            return
          </CharString>
          <CharString index="164">
            91 67 98 3 128 rlinecurve
            return
          </CharString>
          <CharString index="165">
            -126 200 -113 -73 126 -192 -195 -190 rlineto
            return
          </CharString>
          <CharString index="166">
            92 callgsubr
            471 6 callsubr
            return
          </CharString>
          <CharString index="167">
            hstem
            47 139 195 126 vstem
            return
          </CharString>
          <CharString index="168">
            rlineto
            -154 hlineto
            return
          </CharString>
          <CharString index="169">
            415 585 rmoveto
            43 141 -160 -8 -33 -140 rlineto
            return
          </CharString>
          <CharString index="170">
            127 -91 135 -115 132 -41 141 hintmask 10001000
            return
          </CharString>
          <CharString index="171">
            22 hlineto
            68 133 rlineto
            2 hlineto
            -38 -196 rlineto
            80 hlineto
            return
          </CharString>
          <CharString index="172">
            -79 -2 -66 -338 rlineto
            78 hlineto
            38 196 rlineto
            2 hlineto
            return
          </CharString>
          <CharString index="173">
            101 121 103 vstem
            return
          </CharString>
          <CharString index="174">
            89 237 89 hstem
            return
          </CharString>
          <CharString index="175">
            rlineto
            -131 return
          </CharString>
          <CharString index="176">
            -8 callgsubr
            53 53 30 59 53 hvcurveto
            return
          </CharString>
          <CharString index="177">
            rmoveto
            -425 hlineto
            -23 -119 rlineto
            425 hlineto
            endchar
          </CharString>
          <CharString index="178">
            -1 -82 rlineto
            endchar
          </CharString>
          <CharString index="179">
            -6 2 -3 5 4 2 2 4 1 vhcurveto
            5 hlineto
            return
          </CharString>
          <CharString index="180">
            66 339 rlineto
            -80 hlineto
            -83 -160 rlineto
            -3 hlineto
            return
          </CharString>
          <CharString index="181">
            hintmask 100000000000000000000000000000010000000000000000
            return
          </CharString>
          <CharString index="182">
            -20 22 -20 hstemhm
            return
          </CharString>
          <CharString index="183">
            rlineto
            362 return
          </CharString>
          <CharString index="184">
            45 86 86 vvcurveto
            94 -60 46 -160 -22 vhcurveto
            return
          </CharString>
          <CharString index="185">
            hlineto
            29 147 rlineto
            return
          </CharString>
          <CharString index="186">
            -75 80 -111 -169 -127 -192 return
          </CharString>
          <CharString index="187">
            32 -111 -90 -67 -99 -3 -127 rlinecurve
            return
          </CharString>
          <CharString index="188">
            vvcurveto
            -74 91 -47 175 83 vhcurveto
            endchar
          </CharString>
          <CharString index="189">
            92 219 90 return
          </CharString>
          <CharString index="190">
            66 107 79 hstem
            return
          </CharString>
          <CharString index="191">
            -522 rmoveto
            return
          </CharString>
          <CharString index="192">
            -31 -138 -145 14 -22 -110 return
          </CharString>
          <CharString index="193">
            -20 -10 callgsubr
            return
          </CharString>
          <CharString index="194">
            -213 92 return
          </CharString>
          <CharString index="195">
            rmoveto
            194 202 28 139 return
          </CharString>
          <CharString index="196">
            hlineto
            -24 -118 rlineto
            return
          </CharString>
          <CharString index="197">
            rlineto
            hintmask 10110000
            return
          </CharString>
          <CharString index="198">
            rlineto
            -146 hlineto
            return
          </CharString>
          <CharString index="199">
            425 rmoveto
            return
          </CharString>
          <CharString index="200">
            146 hlineto
            return
          </CharString>
        <CharString name=".notdef">
          -200 50 900 50 hstem
          0.5 53.5 432 54.5 vstem
          8 -200 rmoveto
          540 hlineto
          -15 1000 rlineto
          -540 hlineto
          77 -50 rmoveto
          387 hlineto
          -188 -390 rlineto
          211 316 rmoveto
          12 -752 -191 376 rlineto
          -241 -376 rmoveto
          -12 752 192 -376 rlineto
          31 -60 rmoveto
          200 -390 rlineto
          -387 hlineto
          endchar
        </CharString>
        <CharString name="A">
          -34 callgsubr
          hintmask 10011100
          344 -5 -102 callsubr
        </CharString>
        <CharString name="AE">
          53 callsubr
          310 504 -50 callsubr
        </CharString>
        <CharString name="AEacute">
          53 callsubr
          267 -75 callgsubr
          43 -229 -50 callsubr
        </CharString>
        <CharString name="Aacute">
          -22 callgsubr
          218 -75 callgsubr
          hintmask 10011100
          126 -738 -102 callsubr
        </CharString>
        <CharString name="Abreve">
          -59 callgsubr
          57 107 54 callgsubr
          522 -48 callgsubr
          hintmask 10011110
          -257 -831 -92 callsubr
        </CharString>
        <CharString name="Acircumflex">
          -22 callgsubr
          479 -46 callsubr
          hintmask 10011100
          -40 -771 -102 callsubr
        </CharString>
        <CharString name="Adieresis">
          -59 callgsubr
          72 138 54 callgsubr
          546 -54 callgsubr
          hintmask 10011110
          173 -696 -92 callsubr
        </CharString>
        <CharString name="Agrave">
          -22 callgsubr
          537 -43 callsubr
          hintmask 10011100
          -165 -676 -102 callsubr
        </CharString>
        <CharString name="Amacron">
          -59 callgsubr
          85 115 54 callgsubr
          573 12 callgsubr
          hintmask 10011110
          -207 -710 -92 callsubr
        </CharString>
        <CharString name="Aogonek">
          87 callsubr
          142 -45 callsubr
          hstemhm
          186 125 30.5 145.5 hintmask 10111110
          452 1 callgsubr
          30 47 38 128 28 vhcurveto
          1 hlineto
          -37 callsubr
          rrcurveto
          -197 hlineto
          hintmask 11011110
          -90 callsubr
          1 -43 1 -43 1 -43 -114 -48 -44 -56 1 -50 rrcurveto
          hintmask 10111110
          1 -73 92 -45 173 82 rrcurveto
          -129 667 -85 callgsubr
        </CharString>
        <CharString name="Aring">
          -59 callgsubr
          48 219 54 callgsubr
          395 887 -56 callgsubr
          hintmask 10011110
          -51 -892 -92 callsubr
        </CharString>
        <CharString name="Aringacute">
          -22 callgsubr
          266 978 -107 callgsubr
          129 -91 -56 callgsubr
          hintmask 10011100
          -51 -892 -102 callsubr
        </CharString>
        <CharString name="Atilde">
          -59 callgsubr
          62 104 -23 104 23 callgsubr
          hintmask 00111101
          466 786 rmoveto
          hintmask 00111011
          -63 callsubr
          hintmask 00111101
          -63 callgsubr
          hintmask 10011101
          -122 -791 rmoveto
          hintmask 00111101
          -72 callsubr
          hintmask 01011101
          -90 callsubr
          hintmask 10011101
          -7 callsubr
          hintmask 00111101
          -87 callgsubr
        </CharString>
        <CharString name="B">
          -8 9 -9 114 -84 -21 512 115 hstemhm
          360 139 -107 140 hintmask 10011000
          499 197 rmoveto
          58 -33 46 -57 21 vhcurveto
          hintmask 00110100
          78 37 45 58 66 vvcurveto
          103 -108 72 -278 -43 vhcurveto
          -119 -614 rlineto
          hintmask 10011000
          343 -44 129 117 123 vvcurveto
          hintmask 10010100
          -107 254 rmoveto
          -50 -47 -45 -108 -12 vhcurveto
          32 169 rlineto
          80 8 43 -25 -45 vvcurveto
          hintmask 01011000
          -32 -259 rmoveto
          -58 -58 -41 -110 17 vhcurveto
          30 155 rlineto
          96 11 42 -31 -53 vvcurveto
          endchar
        </CharString>
        <CharString name="C">
          20 callsubr
          374 633 -79 callgsubr
        </CharString>
        <CharString name="Cacute">
          20 callsubr
          234 746 -107 callgsubr
          140 -113 -79 callgsubr
        </CharString>
        <CharString name="Ccaron">
          20 callsubr
          380 680 -94 callsubr
          3 -47 -79 callgsubr
        </CharString>
        <CharString name="Ccedilla">
          -83 199 -127 127 -97 -21 508 127 hstemhm
          50 144 69 118 17 135 hintmask 10011110
          381 -191 rmoveto
          hintmask 01011110
          5 90 -24 60 -40 30 42 5 47 10 51 17 15 126 rcurveline
          -12 callgsubr
          vhcurveto
          hintmask 00111010
          46 10 -33 -93 -2 hvcurveto
          135 2 84 callgsubr
          8 -44 81 -123 hhcurveto
          26 callsubr
          -122 49 -81 94 -28 hvcurveto
          hintmask 10011110
          -39 -23 -34 -48 -32 -76 -3 callgsubr
        </CharString>
        <CharString name="Cdotaccent">
          -13 129 390 127 72.5 138 61 callgsubr
          451 706 -47 callsubr
          76 -72 -79 callgsubr
        </CharString>
        <CharString name="D">
          58 callgsubr
          534 390 -19 callgsubr
        </CharString>
        <CharString name="Dcaron">
          58 callgsubr
          351 674 -94 callsubr
          192 -284 -19 callgsubr
        </CharString>
        <CharString name="Dcroat">
          -55 callgsubr
        </CharString>
        <CharString name="E">
          24 callsubr
          458 120 -101 callsubr
        </CharString>
        <CharString name="Eacute">
          24 callsubr
          220 -75 callgsubr
          238 -613 -101 callsubr
        </CharString>
        <CharString name="Ebreve">
          -32 callgsubr
          57 107 hstem
          36 567 vstem
          524 -48 callgsubr
          -145 -706 -101 callsubr
        </CharString>
        <CharString name="Ecaron">
          0 callsubr
          553 vstem
          366 667 -94 callsubr
          101 -547 -101 callsubr
        </CharString>
        <CharString name="Ecircumflex">
          0 callsubr
          539 vstem
          481 -46 callsubr
          72 -646 -101 callsubr
        </CharString>
        <CharString name="Edieresis">
          -32 callgsubr
          72 138 hstem
          36 557 vstem
          548 -54 callgsubr
          285 -571 -101 callsubr
        </CharString>
        <CharString name="Edotaccent">
          -32 callgsubr
          7 callsubr
          36 513 vstem
          437 693 -47 callsubr
          174 -572 -101 callsubr
        </CharString>
        <CharString name="Egrave">
          24 callsubr
          539 -43 callsubr
          -53 -551 -101 callsubr
        </CharString>
        <CharString name="Emacron">
          -32 callgsubr
          85 115 hstem
          36 539 vstem
          575 12 callgsubr
          -95 -585 -101 callsubr
        </CharString>
        <CharString name="Eogonek">
          -214 92 122 -30 callsubr
          hstem
          125 125 vstem
          391 -170 rmoveto
          59 callgsubr
          33 120 rlineto
          -100 callgsubr
          210 hlineto
          -87 -43 -34 -47 -43 vvcurveto
          55 callsubr
          endchar
        </CharString>
        <CharString name="Eth">
          -55 callgsubr
        </CharString>
        <CharString name="Euro">
          -12 115 67 98 -84 87 54 87 106 116 hstemhm
          28 543 hintmask 10111100
          493 40 rmoveto
          -11 81 -165 -38 -63 19 -16 82 rlinecurve
          185 hlineto
          21 87 rlineto
          -210 hlineto
          1 18 3 18 4 18 rrcurveto
          216 hlineto
          22 87 rlineto
          -211 hlineto
          61 28 41 45 50 hhcurveto
          35 15 -19 -44 10 hvcurveto
          123 21 rlineto
          111 -12 -50 47 -88 hhcurveto
          -117 -103 -88 -123 -56 hvcurveto
          -69 hlineto
          -20 -98 rlineto
          58 hlineto
          hintmask 11011100
          -4 -19 -3 -19 -2 -19 rrcurveto
          -57 hlineto
          -20 -98 rlineto
          78 hlineto
          hintmask 10111100
          21 -155 116 -91 250 116 rrcurveto
          endchar
        </CharString>
        <CharString name="F">
          21 -21 241 110 147 122 hstem
          40 521 vstem
          448 241 rmoveto
          22 110 rlineto
          -217 78 callsubr
          257 hlineto
          22 122 rlineto
          -401 -32 callsubr
          145 hlineto
          47 241 rlineto
          endchar
        </CharString>
        <CharString name="G">
          -47 callgsubr
          endchar
        </CharString>
        <CharString name="Gbreve">
          36 callgsubr
          57 107 47 callgsubr
          hintmask 10111100
          533 886 -102 callgsubr
          -191 -945 -31 callgsubr
        </CharString>
        <CharString name="Gcommaaccent">
          -47 callgsubr
          -193 -224 -95 callgsubr
        </CharString>
        <CharString name="Gdotaccent">
          36 callgsubr
          72.5 138 47 callgsubr
          hintmask 10111100
          446 706 -47 callsubr
          128 -811 -31 callgsubr
        </CharString>
        <CharString name="H">
          21 -21 256 112 252 -20 hstem
          18 552 vstem
          304 hmoveto
          93 callsubr
          120 620 91 callsubr
          -49 -252 rlineto
          -140 hlineto
          49 252 rlineto
          -146 -32 callsubr
          146 hlineto
          50 256 91 callgsubr
          endchar
        </CharString>
        <CharString name="Hbar">
          21 -21 236 112 80 98 -93 88 -88 187 hstemhm
          18 590 hintmask 11010100
          371 348 rmoveto
          -140 hlineto
          17 85 91 callgsubr
          -84 -433 rmoveto
          93 callsubr
          hintmask 11100100
          83 428 rlineto
          56 hlineto
          19 98 rlineto
          -56 hlineto
          hintmask 11001100
          18 94 91 callsubr
          hintmask 11010100
          -19 -99 rlineto
          -140 hlineto
          hintmask 11001100
          19 99 91 callsubr
          hintmask 11100100
          -18 -94 rlineto
          -57 hlineto
          -19 -98 rlineto
          57 hlineto
          -83 -428 83 callgsubr
          46 236 91 callgsubr
          endchar
        </CharString>
        <CharString name="I">
          38 callsubr
          316 113 -98 callsubr
        </CharString>
        <CharString name="Iacute">
          38 callsubr
          209 -75 callgsubr
          107 -620 -98 callsubr
        </CharString>
        <CharString name="Ibreve">
          9 callsubr
          57 107 hstem
          19 573 vstem
          513 -48 callgsubr
          -276 -713 -98 callsubr
        </CharString>
        <CharString name="Icircumflex">
          35 callsubr
          545 vstem
          470 -46 callsubr
          -59 -653 -98 callsubr
        </CharString>
        <CharString name="Idieresis">
          9 callsubr
          72 138 hstem
          19 563 vstem
          537 -54 callgsubr
          154 -578 -98 callsubr
        </CharString>
        <CharString name="Idotaccent">
          9 callsubr
          7 callsubr
          19 525 vstem
          426 693 -47 callsubr
          43 -579 -98 callsubr
        </CharString>
        <CharString name="Igrave">
          38 callsubr
          528 -43 callsubr
          -184 -558 -98 callsubr
        </CharString>
        <CharString name="Imacron">
          9 callsubr
          85 115 hstem
          19 545 vstem
          564 12 callgsubr
          -226 -592 -98 callsubr
        </CharString>
        <CharString name="Iogonek">
          87 callsubr
          121 113 394 113 hstem
          61 125 vstem
          327 1 callgsubr
          28 32 34 82 29 vhcurveto
          125 hlineto
          28 113 rlineto
          -137 hlineto
          -95 callsubr
          139 hlineto
          -69 -43 -28 -46 -42 81 callsubr
        </CharString>
        <CharString name="J">
          -10 130 387 113 hstem
          19 500 vstem
          377 55 rmoveto
          28 28 15 30 37 192 62 315 rcurveline
          -330 hlineto
          -23 -113 rlineto
          186 hlineto
          -43 -216 -24 -119 -7 -21 -13 -13 rlinecurve
          -18 -18 -30 -3 -177 3 -21 -130 rcurveline
          225 -3 91 26 42 42 rrcurveto
          endchar
        </CharString>
        <CharString name="K">
          -27 callsubr
          endchar
        </CharString>
        <CharString name="Kcommaaccent">
          -27 callsubr
          -157 -891 -95 callgsubr
        </CharString>
        <CharString name="L">
          40 callsubr
          43 433 34 callsubr
          endchar
        </CharString>
        <CharString name="Lacute">
          40 callsubr
          43 516 vstem
          232 -75 callgsubr
          220 -733 rmoveto
          -36 callgsubr
          endchar
        </CharString>
        <CharString name="Lcaron">
          40 callsubr
          43 556 vstem
          451 697 -29 callsubr
          -147 -702 rmoveto
          -36 callgsubr
          endchar
        </CharString>
        <CharString name="Lcommaaccent">
          40 callsubr
          43 433 34 callsubr
          74 -262 -95 callgsubr
        </CharString>
        <CharString name="Ldot">
          0 122 133 148 217 -20 hstem
          43 495 34 callsubr
          459 255 rmoveto
          36 148 68 callsubr
          hlineto
          -37 -148 rlineto
          endchar
        </CharString>
        <CharString name="Lslash">
          40 callsubr
          55.5 58.5 vstem
          472 hmoveto
          24 122 rlineto
          -263 hlineto
          41 213 124 56 -3 94 -101 -46 35 181 91 callsubr
          -49 -254 -80 -36 3 -94 57 26 -51 -262 rlineto
          endchar
        </CharString>
        <CharString name="M">
          18 callsubr
          23 -20 hstemhm
          16 564 hintmask 10110000
          270 623 rmoveto
          -135 -6 -119 -617 rlineto
          41 callgsubr
          60 356 rlineto
          3 hlineto
          17 -217 rlineto
          69 hlineto
          98 217 rlineto
          3 hlineto
          -72 -356 rlineto
          135 hlineto
          hintmask 11010000
          119 620 15 callsubr
          -140 -311 rlineto
          -3 hlineto
          endchar
        </CharString>
        <CharString name="N">
          32 callsubr
          333 hmoveto
          -68 callgsubr
          endchar
        </CharString>
        <CharString name="NUL">
          -107 endchar
        </CharString>
        <CharString name="Nacute">
          32 callsubr
          221 735 -107 callgsubr
          112 -735 rmoveto
          -68 callgsubr
          endchar
        </CharString>
        <CharString name="Ncaron">
          18 callsubr
          22 -20 hstemhm
          19 571 hintmask 10110000
          367 669 -94 callsubr
          -25 -669 rmoveto
          -68 callgsubr
          endchar
        </CharString>
        <CharString name="Ncommaaccent">
          32 callsubr
          333 hmoveto
          -68 callgsubr
          -117 -617 -95 callgsubr
        </CharString>
        <CharString name="Ntilde">
          18 callsubr
          22 -20 82 104 -23 104 hstemhm
          19 589 hintmask 10110100
          469 788 rmoveto
          hintmask 10101100
          -63 callsubr
          hintmask 10110100
          -63 callgsubr
          -136 -788 rmoveto
          119 hlineto
          hintmask 11010100
          -13 callsubr
          hintmask 10110100
          -40 callgsubr
          endchar
        </CharString>
        <CharString name="O">
          -25 callgsubr
          342 632 -106 callgsubr
        </CharString>
        <CharString name="OE">
          0 116 147 96 145 116 hstem
          33 144 vstem
          177 221 rmoveto
          91 41 186 94 6 vhcurveto
          -74 -388 rlineto
          -50 -11 51 54 hvcurveto
          333 -105 rmoveto
          -152 78 callsubr
          114 hlineto
          19 96 rlineto
          -115 hlineto
          28 145 rlineto
          147 hlineto
          22 116 rlineto
          -209 hlineto
          -273 -87 -228 -175 -159 86 -58 140 hvcurveto
          221 hlineto
          endchar
        </CharString>
        <CharString name="Oacute">
          -25 callgsubr
          221 747 -107 callgsubr
          121 -115 -106 callgsubr
        </CharString>
        <CharString name="Obreve">
          4 callsubr
          59 107 -15 callgsubr
          525 887 -102 callgsubr
          -262 -208 -106 callgsubr
        </CharString>
        <CharString name="Ocircumflex">
          -25 callgsubr
          482 684 -84 callsubr
          -45 -148 -106 callgsubr
        </CharString>
        <CharString name="Odieresis">
          4 callsubr
          74 138 -15 callgsubr
          549 708 -100 callsubr
          168 -73 -106 callgsubr
        </CharString>
        <CharString name="Ograve">
          -25 callgsubr
          540 742 -93 callgsubr
          -170 -53 -106 callgsubr
        </CharString>
        <CharString name="Ohungarumlaut">
          -25 callgsubr
          256 692 -42 callsubr
          -70 -105 -106 callgsubr
        </CharString>
        <CharString name="Omacron">
          4 callsubr
          87 115 -15 callgsubr
          576 834 -52 callgsubr
          -212 -87 -106 callgsubr
        </CharString>
        <CharString name="Omega">
          0 113 400 122 hstem
          76 122 189 142 vstem
          204 8 rmoveto
          -2 43 -4 30 147 vvcurveto
          148 32 137 86 47 24 -35 -65 -92 -38 -118 -87 -195 vhcurveto
          1 -8 rlineto
          200 hlineto
          22 113 rlineto
          -66 hlineto
          73 125 37 98 97 vvcurveto
          124 -66 78 -122 -190 -75 -169 -193 -62 6 -49 9 -49 vhcurveto
          -69 -20 callgsubr
          200 hlineto
          endchar
        </CharString>
        <CharString name="Oslash">
          41 callsubr
          322 514 -66 callsubr
        </CharString>
        <CharString name="Oslashacute">
          41 callsubr
          221 747 -107 callgsubr
          101 -233 -66 callsubr
        </CharString>
        <CharString name="Otilde">
          4 callsubr
          64 104 -23 104 hstemhm
          43 151 199 151 hintmask 11101100
          469 800 rmoveto
          hintmask 11011100
          -63 callsubr
          hintmask 11101100
          -63 callgsubr
          -127 -168 -106 callgsubr
        </CharString>
        <CharString name="P">
          21 -21 511 116 hstem
          409 140 vstem
          173 hmoveto
          32 169 rlineto
          215 28 129 103 147 vvcurveto
          127 -114 85 -286 -43 vhcurveto
          -119 -616 rlineto
          379 422 rmoveto
          -80 -63 -63 -116 15 vhcurveto
          41 214 rlineto
          88 13 50 -35 -64 vvcurveto
          endchar
        </CharString>
        <CharString name="Q">
          511 123 hstem
          57 144 193 149 vstem
          403 -158 rmoveto
          57 115 -188 77 rlineto
          152 79 119 149 158 vvcurveto
          127 -67 87 -139 -227 -107 -266 -221 81 vhcurveto
          125 45 rlineto
          189 -28 48 130 91 hhcurveto
          44 30 -25 -70 -132 -102 -146 -166 -59 hvcurveto
          -35 -105 rlineto
          endchar
        </CharString>
        <CharString name="R">
          -37 callgsubr
          endchar
        </CharString>
        <CharString name="R_p">
          11 -21 25 -21 27 -21 28 -21 502 -20 31 -20 126 -20 hstemhm
          -12 595 hintmask 01000111
          143 -6 rmoveto
          hintmask 00010111
          106 13 -20 264 rlineto
          55 60 77 callsubr
          hintmask 00100111
          -121 -621 rlineto
          100 hlineto
          43 209 rlineto
          4 hlineto
          211 -373 rmoveto
          hintmask 10000111
          82 callgsubr
          -1 6 6 -1 6 hhcurveto
          115 74 256 162 78 -14 36 -32 -25 -30 -23 -28 -21 hvcurveto
          hintmask 00011011
          6 40 -92 -7 -129 -676 rlineto
          endchar
        </CharString>
        <CharString name="Racute">
          5 callsubr
          hintmask 00111000
          203 740 -107 callgsubr
          hintmask 10011000
          137 -750 rmoveto
          -18 callsubr
        </CharString>
        <CharString name="Rcaron">
          5 callsubr
          hintmask 00111000
          349 674 -94 callsubr
          hintmask 10011000
          -684 vmoveto
          -18 callsubr
        </CharString>
        <CharString name="Rcommaaccent">
          -37 callgsubr
          -126 -552 -95 callgsubr
        </CharString>
        <CharString name="S">
          -14 callgsubr
          532 450 -84 callgsubr
          endchar
        </CharString>
        <CharString name="Sacute">
          -14 callgsubr
          237 745 -107 callgsubr
          295 -295 -84 callgsubr
          endchar
        </CharString>
        <CharString name="Scaron">
          -14 callgsubr
          383 679 -94 callsubr
          158 -229 -84 callgsubr
          endchar
        </CharString>
        <CharString name="Scedilla">
          -82 196 -122 122 -97 -21 34 21 callgsubr
          -9 118 -23 151 hintmask 10001010
          234 -192 rmoveto
          118 2 rlineto
          hintmask 00101010
          6 97 -29 61 -44 28 rrcurveto
          hintmask 00101101
          137 21 58 71 71 -28 callgsubr
          123 25 rlineto
          -11 callgsubr
          hintmask 01001101
          -12 callsubr
          hintmask 00011101
          -28 -139 rlineto
          hintmask 01001101
          47 -9 42 -6 39 -2 rrcurveto
          hintmask 10001010
          -35 -25 -31 -46 -29 -69 -3 callgsubr
        </CharString>
        <CharString name="Scommaaccent">
          -14 callgsubr
          532 450 -84 callgsubr
          -307 -697 -95 callgsubr
        </CharString>
        <CharString name="T">
          6 callgsubr
          endchar
        </CharString>
        <CharString name="Tcaron">
          45 callsubr
          357 667 -94 callsubr
          47 -169 -10 callsubr
          endchar
        </CharString>
        <CharString name="Tcommaaccent">
          6 callgsubr
          -203 -262 -95 callgsubr
        </CharString>
        <CharString name="Thorn">
          21 -21 426 116 -116 194 hstemhm
          392 140 hintmask 10110000
          173 hmoveto
          17 84 rlineto
          214 28 128 103 147 vvcurveto
          hintmask 11010000
          102 -74 75 -178 3 vhcurveto
          hintmask 10110000
          15 78 rlineto
          -144 hlineto
          -121 -620 76 callsubr
          337 rmoveto
          -79 -62 -63 -116 14 vhcurveto
          42 214 rlineto
          87 13 49 -36 -63 vvcurveto
          endchar
        </CharString>
        <CharString name="U">
          7 callgsubr
          206 240 -105 callgsubr
        </CharString>
        <CharString name="Uacute">
          7 callgsubr
          218 -75 callgsubr
          -12 -493 -105 callgsubr
        </CharString>
        <CharString name="Ubreve">
          15 callgsubr
          77 107 28 callsubr
          522 -48 callgsubr
          -395 -586 -105 callgsubr
        </CharString>
        <CharString name="Ucircumflex">
          7 callgsubr
          479 -46 callsubr
          -178 -526 -105 callgsubr
        </CharString>
        <CharString name="Udieresis">
          15 callgsubr
          92 138 28 callsubr
          546 -54 callgsubr
          35 -451 -105 callgsubr
        </CharString>
        <CharString name="Ugrave">
          7 callgsubr
          537 -43 callsubr
          -303 -431 -105 callgsubr
        </CharString>
        <CharString name="Uhungarumlaut">
          7 callgsubr
          253 678 -42 callsubr
          -203 -483 -105 callgsubr
        </CharString>
        <CharString name="Umacron">
          15 callgsubr
          105 115 28 callsubr
          573 12 callgsubr
          -345 -465 -105 callgsubr
        </CharString>
        <CharString name="Uogonek">
          87 callsubr
          131 -21 631 -20 hstemhm
          55 145 -99 125 hintmask 11101000
          367 1 callgsubr
          30 36 21 112 59 vhcurveto
          59 32 38 61 20 101 79 407 rcurveline
          -144 hlineto
          -79 -410 rlineto
          hintmask 11110000
          -59 callsubr
          -38 callgsubr
          -35 -178 62 -73 110 -13 rlinecurve
          hintmask 11101000
          -68 -40 -33 -42 -39 vvcurveto
          -74 92 -45 174 82 vhcurveto
          endchar
        </CharString>
        <CharString name="Uring">
          15 callgsubr
          68 219 28 callsubr
          395 887 -56 callgsubr
          -189 -647 -105 callgsubr
        </CharString>
        <CharString name="V">
          0 131 489 -20 25 -20 hstemhm
          89 158 hintmask 10110000
          325 hmoveto
          hintmask 11010000
          100 206 92 208 87 206 rrcurveto
          -146 hlineto
          -62 -162 -70 -165 -69 -162 rrcurveto
          -10 hlineto
          hintmask 10110000
          -6 163 -6 169 -1 162 -145 -10 rcurveline
          6 -206 13 -203 19 -206 rrcurveto
          endchar
        </CharString>
        <CharString name="W">
          -14 callsubr
          297 hmoveto
          -85 callsubr
        </CharString>
        <CharString name="Wacute">
          -14 callsubr
          220 -75 callgsubr
          77 -733 rmoveto
          -85 callsubr
        </CharString>
        <CharString name="Wcircumflex">
          -14 callsubr
          481 -46 callsubr
          -89 -766 rmoveto
          -85 callsubr
        </CharString>
        <CharString name="Wdieresis">
          0 198 -177 19 callgsubr
          92 138 hstemhm
          292.5 72 hintmask 01111000
          548 -54 callgsubr
          124 -691 rmoveto
          -26 callsubr
          hintmask 10111000
          -80 callgsubr
        </CharString>
        <CharString name="Wgrave">
          -14 callsubr
          539 -43 callsubr
          -214 -671 rmoveto
          -85 callsubr
        </CharString>
        <CharString name="X">
          18 -21 24 -21 24 -21 617 -20 23 -20 hstemhm
          -25 632 hintmask 10001100
          336 -3 rmoveto
          hintmask 00110100
          151 6 -113 297 233 320 rlineto
          -155 hlineto
          -136 -210 rlineto
          hintmask 01001100
          -73 213 -150 -6 113 -298 -231 -319 rlineto
          154 hlineto
          135 208 rlineto
          endchar
        </CharString>
        <CharString name="Y">
          10 callsubr
          303 hmoveto
          -61 callsubr
        </CharString>
        <CharString name="Yacute">
          10 callsubr
          215 736 -107 callgsubr
          88 -736 rmoveto
          -61 callsubr
        </CharString>
        <CharString name="Ycircumflex">
          10 callsubr
          476 673 -84 callsubr
          -78 -769 rmoveto
          -61 callsubr
        </CharString>
        <CharString name="Ydieresis">
          18 callsubr
          23 -20 92 138 hstemhm
          87 525 hintmask 10111000
          543 697 -100 callsubr
          135 -694 rmoveto
          38 199 rlineto
          hintmask 11011000
          -6 callsubr
          hintmask 10111000
          -20 callsubr
        </CharString>
        <CharString name="Ygrave">
          10 callsubr
          534 731 -93 callgsubr
          -203 -674 rmoveto
          -61 callsubr
        </CharString>
        <CharString name="Z">
          11 callgsubr
          hstem
          11 548 vstem
          447 hmoveto
          -53 callsubr
        </CharString>
        <CharString name="Zacute">
          11 callgsubr
          hstem
          11 548 vstem
          213 -75 callgsubr
          234 -733 rmoveto
          -53 callsubr
        </CharString>
        <CharString name="Zcaron">
          11 callgsubr
          hstem
          11 571 vstem
          359 667 -94 callsubr
          97 -667 rmoveto
          -53 callsubr
        </CharString>
        <CharString name="Zdotaccent">
          11 callgsubr
          7 callsubr
          11 548 vstem
          430 693 -47 callsubr
          170 -692 rmoveto
          -53 callsubr
        </CharString>
        <CharString name="a">
          -17 callsubr
          hintmask 10111000
          212 118 -94 callgsubr
        </CharString>
        <CharString name="aacute">
          -17 callsubr
          hintmask 01111000
          217 631 -107 callgsubr
          hintmask 10111000
          -5 -513 -94 callgsubr
        </CharString>
        <CharString name="abreve">
          -46 callgsubr
          57 107 14 callgsubr
          521 771 -102 callgsubr
          hintmask 10111100
          -388 -606 -103 callsubr
        </CharString>
        <CharString name="acircumflex">
          -17 callsubr
          hintmask 01111000
          478 568 -84 callsubr
          hintmask 10111000
          -171 -546 -94 callgsubr
        </CharString>
        <CharString name="acute">
          561 226 hstem
          133 327 vstem
          133 620 -107 callgsubr
          endchar
        </CharString>
        <CharString name="adieresis">
          -46 callgsubr
          72 138 14 callgsubr
          545 592 -100 callsubr
          hintmask 10111100
          42 -471 -103 callsubr
        </CharString>
        <CharString name="ae">
          33 callsubr
          531 63 -73 callgsubr
        </CharString>
        <CharString name="aeacute">
          33 callsubr
          209 630 -107 callgsubr
          322 -567 -73 callgsubr
        </CharString>
        <CharString name="agrave">
          -46 callgsubr
          108 -20 14 callgsubr
          536 626 -93 callgsubr
          hintmask 10111100
          -296 -451 -103 callsubr
        </CharString>
        <CharString name="amacron">
          -46 callgsubr
          85 115 14 callgsubr
          572 718 -52 callgsubr
          hintmask 10111100
          -338 -485 -103 callsubr
        </CharString>
        <CharString name="ampersand">
          -9 123 -102 -21 hstemhm
          9 134 hintmask 01100000
          412 -21 rmoveto
          118 81 -36 43 -31 41 -27 39 rlinecurve
          38 47 38 56 40 66 -111 40 rcurveline
          -22 -43 -21 -37 -20 -31 -21 39 -15 38 -11 36 rrcurveto
          65 60 36 63 46 vvcurveto
          47 -39 30 -56 -74 -77 -56 -121 -15 1 -17 3 -16 vhcurveto
          -138 -107 -43 -97 -83 vvcurveto
          -82 45 -55 87 63 65 28 59 69 vhcurveto
          22 -33 25 -33 27 -33 rrcurveto
          hintmask 10100000
          -227 135 rmoveto
          -26 -16 15 34 37 22 47 54 54 hvcurveto
          16 -43 22 -47 27 -47 rrcurveto
          -37 -40 -34 -13 -25 hhcurveto
          endchar
        </CharString>
        <CharString name="aogonek">
          87 callsubr
          108 131 -110 -21 57 63 295 116 hstemhm
          30 140 23 125 -9 132 hintmask 10111110
          457 -171 rmoveto
          -10 65 rlineto
          -93 -27 -36 12 31 vvcurveto
          32 47 46 148 56 vhcurveto
          2 2 1 1 2 hvcurveto
          hintmask 10111101
          -104 callgsubr
          -1 -34 6 -22 15 -12 rrcurveto
          hintmask 10101110
          -101 -54 -35 -51 -48 vvcurveto
          hintmask 10111110
          -69 92 -47 172 80 vhcurveto
          hintmask 11001100
          -245 289 -97 callgsubr
          endchar
        </CharString>
        <CharString name="approxequal">
          89 121 -37 120 25 120 -37 121 -4 -20 hstemhm
          17 527 hintmask 10101100
          372 318 rmoveto
          68 44 51 109 60 hvcurveto
          -76 40 rlineto
          -49 -33 -21 -31 -19 hhcurveto
          hintmask 10010100
          -36 -33 84 -78 hhcurveto
          -71 -55 -58 -111 -60 hvcurveto
          74 -40 rlineto
          54 35 25 34 21 hhcurveto
          hintmask 10101100
          39 37 -83 79 hhcurveto
          -45 -229 rmoveto
          68 44 52 109 61 hvcurveto
          -75 40 rlineto
          -49 -33 -21 -31 -20 hhcurveto
          hintmask 01101100
          -36 -33 83 -77 hhcurveto
          -72 -55 -58 -110 -61 hvcurveto
          77 -39 rlineto
          53 35 24 34 21 hhcurveto
          hintmask 10101100
          38 36 -84 79 hhcurveto
          endchar
        </CharString>
        <CharString name="aring">
          -46 callgsubr
          48 219 14 callgsubr
          394 785 -56 callgsubr
          hintmask 10111100
          -182 -667 -103 callsubr
        </CharString>
        <CharString name="aringacute">
          -17 callsubr
          hintmask 01111000
          265 876 -107 callgsubr
          129 -91 -56 callgsubr
          hintmask 10111000
          -182 -667 -94 callgsubr
        </CharString>
        <CharString name="asciicircum">
          511 -20 hstem
          40 480 vstem
          410 137 rmoveto
          110 70 -201 304 -24 -3 -255 -298 86 -73 159 193 rlineto
          endchar
        </CharString>
        <CharString name="asciitilde">
          184 129 -16 129 hstemhm
          22 531 hintmask 10100000
          374 184 rmoveto
          69 54 74 128 56 hvcurveto
          -83 38 rlineto
          -68 -33 -27 -43 -20 hhcurveto
          hintmask 01100000
          -36 -67 113 -79 hhcurveto
          -71 -62 -80 -123 -53 hvcurveto
          84 -37 rlineto
          68 31 27 43 21 hhcurveto
          hintmask 10100000
          36 71 -113 82 hhcurveto
          endchar
        </CharString>
        <CharString name="asterisk">
          505 -20 142 -20 hstem
          77 485 vstem
          353 199 rmoveto
          85 33 -26 148 150 35 -5 90 -149 20 14 152 -90 25 -67 -138 -136 63 -52 -77 110 -108 -100 -110 57 -72 134 70 rlineto
          endchar
        </CharString>
        <CharString name="asterisk.alt">
          193 513 hstem
          60 507 vstem
          370 527 rmoveto
          63 148 -120 31 -11 -163 rlineto
          -26 -5 rmoveto
          -97 127 -87 -88 136 -91 rlineto
          180 -48 rmoveto
          159 22 -32 119 -148 -72 rlineto
          -168 -45 rmoveto
          -159 -22 33 -119 147 72 rlineto
          112 -31 rmoveto
          98 -127 87 88 -136 91 rlineto
          -143 -41 rmoveto
          -63 -148 121 -32 9 164 rlineto
          endchar
        </CharString>
        <CharString name="at">
          -158 106 117.5 104.5 214 101 99 103 hstemhm
          25 112 67 116 66 112 -45 120 hintmask 11111101
          424 -149 rmoveto
          16 105 rlineto
          -221 -32 -82 62 167 vvcurveto
          229 134 202 118 52 19 -38 -62 -7 vhcurveto
          1 -11 -10 0 -10 hhcurveto
          -141 -77 -163 -142 -85 30 -39 44 hvcurveto
          hintmask 11111110
          35 39 25 36 37 hvcurveto
          -6 -51 115 -1 10 68 11 60 10 51 rlinecurve
          34 173 rlineto
          hintmask 11111101
          175 34 -55 95 -135 hhcurveto
          -214 -168 -267 -276 -216 113 -122 286 45 hvcurveto
          -81 319 rmoveto
          -13 -10 13 32 63 37 106 27 9 21 -4 -7 18 hvcurveto
          -34 -181 rlineto
          -16 -21 -22 -6 -12 hhcurveto
          endchar
        </CharString>
        <CharString name="atilde">
          -46 callgsubr
          62 104 -58 -20 55 104 -21 callsubr
          hintmask 01110011
          465 684 rmoveto
          hintmask 01101111
          -63 callsubr
          hintmask 01110011
          -63 callgsubr
          hintmask 10101111
          -253 -566 -97 callgsubr
          hintmask 01101111
          -106 callsubr
        </CharString>
        <CharString name="b">
          -13 117 290 128 0 -20 hstemhm
          382 138 hintmask 10110000
          198 -13 rmoveto
          202 120 184 180 115 -46 56 -64 -50 -58 -36 -48 -53 hvcurveto
          52 268 -138 -10 -132 -678 rlineto
          -16 45 68 -15 54 hhcurveto
          69 117 rmoveto
          -18 -30 5 10 -32 hvcurveto
          hintmask 11010000
          42 218 rlineto
          33 37 39 24 29 hhcurveto
          26 22 -22 -57 hvcurveto
          hintmask 10110000
          -95 -56 -116 -59 vhcurveto
          endchar
        </CharString>
        <CharString name="backslash">
          -201 939 hstem
          82 380 vstem
          198 738 rmoveto
          -116 -37 264 -902 116 38 rlineto
          endchar
        </CharString>
        <CharString name="bar">
          -183 902 hstem
          120 308 vstem
          295 716 rmoveto
          -175 -899 rlineto
          41 callgsubr
          176 902 rlineto
          endchar
        </CharString>
        <CharString name="braceleft">
          -215 951 hstemhm
          84 64 callgsubr
          348 -215 -57 callgsubr
        </CharString>
        <CharString name="braceleft.cap">
          -166 951 hstemhm
          94 64 callgsubr
          358 -166 -57 callgsubr
        </CharString>
        <CharString name="braceright">
          635 -20 hstemhm
          175 63 callsubr
          19 -215 -56 callsubr
        </CharString>
        <CharString name="braceright.cap">
          -166 951 hstemhm
          185 63 callsubr
          29 -166 -56 callsubr
        </CharString>
        <CharString name="bracketleft">
          -180 56 callsubr
          48 497 vstem
          48 -180 23 callsubr
        </CharString>
        <CharString name="bracketleft.cap">
          -131 56 callsubr
          58 497 vstem
          58 -131 23 callsubr
        </CharString>
        <CharString name="bracketright">
          -179 56 callsubr
          0 497 vstem
          497 701 24 callgsubr
        </CharString>
        <CharString name="bracketright.cap">
          -130 56 callsubr
          10 497 vstem
          507 750 24 callgsubr
        </CharString>
        <CharString name="breve">
          564 107 hstem
          96 415 vstem
          432 760 -102 callgsubr
          endchar
        </CharString>
        <CharString name="bullet">
          142 312 hstem
          130 301 vstem
          431 318 rmoveto
          80 -56 56 -83 -83 -79 -68 -106 -80 61 -58 76 84 80 69 107 vhcurveto
          endchar
        </CharString>
        <CharString name="bullet.alt">
          165 270 hstem
          121 327 vstem
          393 165 rmoveto
          55 270 rlineto
          -272 hlineto
          -55 -270 rlineto
          endchar
        </CharString>
        <CharString name="c">
          20 callgsubr
          507 321 -74 callsubr
        </CharString>
        <CharString name="cacute">
          20 callgsubr
          199 634 -107 callgsubr
          308 -313 -74 callsubr
        </CharString>
        <CharString name="caron">
          554 219 hstem
          114 392 vstem
          283 554 -94 callsubr
          endchar
        </CharString>
        <CharString name="caron.alt">
          544 262 hstem
          245 184 vstem
          281 801 -29 callsubr
          endchar
        </CharString>
        <CharString name="ccaron">
          20 callgsubr
          345 568 -94 callsubr
          171 -247 -74 callsubr
        </CharString>
        <CharString name="ccedilla">
          -81 187 -110 110 -90 -21 408 118 hstemhm
          47 139 67 118 10 126 hintmask 10011100
          371 -189 rmoveto
          hintmask 00111100
          5 94 -27 61 -42 29 rrcurveto
          hintmask 10011100
          47 8 55 18 61 27 rrcurveto
          hintmask 01011110
          -40 callsubr
          126 2 rlineto
          -19 callsubr
          -90 40 -74 90 -22 hvcurveto
          hintmask 10011100
          -37 -24 -32 -47 -30 -72 -3 callgsubr
        </CharString>
        <CharString name="cdotaccent">
          -12 118 297 118 72.5 138 60 callsubr
          416 594 -47 callsubr
          244 -272 -74 callsubr
        </CharString>
        <CharString name="cedilla">
          -69 96 hstem
          281 118 vstem
          175 -157 rmoveto
          0 callgsubr
          118 2 rlineto
          138 8 -62 66 -76 hhcurveto
          -65 -52 -51 -111 -46 hvcurveto
          endchar
        </CharString>
        <CharString name="cent">
          21 121 217 137 124 -20 hstem
          55 132 vstem
          187 265 rmoveto
          43 21 35 81 14 vhcurveto
          -39 -177 rlineto
          -45 20 -18 29 36 vvcurveto
          242 -244 rmoveto
          22 121 -42 3 -36 4 -31 5 rlinecurve
          45 210 28 -1 33 -1 37 -3 rlinecurve
          25 133 rlineto
          3 -31 -29 1 -27 hhcurveto
          27 124 rlineto
          -122 hlineto
          -26 -136 rlineto
          -183 -35 -64 -114 -93 vvcurveto
          -81 53 -63 99 -38 vhcurveto
          -33 -143 rlineto
          122 hlineto
          24 114 33 -5 37 -4 39 -1 rlinecurve
          endchar
        </CharString>
        <CharString name="check.1">
          -13 178.5 -157.5 -21 643 -20 hstemhm
          45 549 hintmask 01110000
          594 630 rmoveto
          -136 56 90 callsubr
          -93 -149 -78 -183 -60 -189 -7 1 rcurveline
          -48 226 -127 -38 92 -365 122 -2 rlineto
          hintmask 01110000
          95 244 111 203 129 196 rrcurveto
          endchar
        </CharString>
        <CharString name="check.2">
          7 72 callgsubr
          39 -21 619 -20 hstemhm
          2 581 hintmask 01011000
          264 -9 rmoveto
          hintmask 00111000
          137 18 -89 254 271 365 -127 61 -189 -303 -45 155 -134 -35 83 -238 rlineto
          hintmask 10011000
          -169 -244 87 -38 125 171 rlineto
          endchar
        </CharString>
        <CharString name="circumflex">
          628 75 callsubr
          94 392 hintmask 10100000
          392 557 -65 callsubr
          hintmask 01100000
          22 callgsubr
          rlineto
          hintmask 10100000
          -24 callsubr
          endchar
        </CharString>
        <CharString name="colon">
          0 168 144 168 hstem
          137 264 vstem
          370 312 19 callsubr
        </CharString>
        <CharString name="colon.alt">
          68 168 144 168 hstem
          150 264 vstem
          383 380 19 callsubr
        </CharString>
        <CharString name="colonmonetary">
          476 125 hstem
          46 133 vstem
          179 286 rmoveto
          67 33 68 138 34 vhcurveto
          -73 -278 rlineto
          -66 21 -32 30 58 vvcurveto
          28 -360 rmoveto
          105 hlineto
          27 107 25 -4 26 -4 28 -4 rlinecurve
          51 117 -37 6 -33 5 -30 6 rlinecurve
          84 316 rlineto
          3 31 33 2 37 hhcurveto
          14 125 -27 -1 -26 -2 -25 -2 rlinecurve
          27 97 rlineto
          -105 hlineto
          -30 -112 -18 -3 -17 -4 -17 -4 rlinecurve
          17 62 16 61 0 vvcurveto
          -105 hlineto
          -43 -166 68 callsubr
          -67 -38 -103 -93 vvcurveto
          -61 21 -47 41 -35 vhcurveto
          -55 -195 rlineto
          105 hlineto
          39 144 14 -5 16 -5 16 -5 rlinecurve
          endchar
        </CharString>
        <CharString name="comma">
          -142 316 hstem
          172 168 vstem
          103 -112 rmoveto
          56 -30 112 93 68 95 1 128 rlinecurve
          -168 -4 2 -109 -12 -85 -59 -88 rlinecurve
          endchar
        </CharString>
        <CharString name="commaaccent">
          -286 221 hstem
          152 203 vstem
          152 -262 -95 callgsubr
        </CharString>
        <CharString name="commaaccent.rot">
          575 221 hstem
          180 203 vstem
          383 772 42 callsubr
          endchar
        </CharString>
        <CharString name="copyright">
          7 71 76 83 111.5 115.5 78 71 hstem
          39 78 58 86 57 72 63 78 vstem
          322 613 rmoveto
          -162 -121 -156 -206 -159 92 -85 126 176 98 163 203 158 -85 82 -124 hvcurveto
          -9 -71 rmoveto
          79 61 -50 -132 -157 -63 -125 -123 -83 -67 55 130 159 85 120 111 hvcurveto
          -78 vmoveto
          -77 -61 -90 -101 -87 51 -58 120 38 hvcurveto
          15 78 rlineto
          -80 -18 -20 20 43 vvcurveto
          46 16 43 22 10 10 -8 -22 -1 vhcurveto
          72 1 rlineto
          79 3 -31 36 -49 hhcurveto
          endchar
        </CharString>
        <CharString name="d">
          50 callgsubr
          hintmask 10110000
          216 117 -49 callgsubr
        </CharString>
        <CharString name="dagger">
          435.5 86 callgsubr
          111 428 hintmask 01100000
          294 140 rmoveto
          hintmask 10100000
          86 302 137 -13 22 109 -130 13 33 138 -133 12 rlineto
          hintmask 01100000
          85 callsubr
          142 -13 -75 -335 19 -12 rlineto
          endchar
        </CharString>
        <CharString name="daggerdbl">
          236 109 -84.5 110 65 86 callgsubr
          72 467 hintmask 10011000
          282 89 rmoveto
          43 154 153 -14 22 109 -145 14 rlineto
          hintmask 10101000
          25 90 137 -13 22 109 -131 13 34 138 -133 12 rlineto
          hintmask 01011000
          85 callsubr
          143 -13 -21 -90 -139 13 -22 -110 137 -13 -42 -186 18 -13 rlineto
          endchar
        </CharString>
        <CharString name="dcaron">
          50 callgsubr
          hintmask 01110000
          623 801 -29 callsubr
          hintmask 10110000
          -555 -689 -49 callgsubr
        </CharString>
        <CharString name="dcroat">
          43 callgsubr
          41 86 66 callgsubr
          hintmask 10111000
          216 117 -15 callsubr
          hintmask 01111100
          33 callgsubr
          82 423 rlineto
          57 hlineto
          17 87 rlineto
          -57 hlineto
          11 58 -137 -10 -9 -48 rlineto
          -120 hlineto
          -17 -86 rlineto
          120 hlineto
          -8 -43 -35 callgsubr
        </CharString>
        <CharString name="degree">
          287 103 195 103 hstem
          118 110 174 110 vstem
          333 688 rmoveto
          -113 -102 -87 -131 -113 76 -70 103 112 103 87 131 112 -76 71 -103 hvcurveto
          -23 -298 rmoveto
          -48 -34 38 53 62 39 42 53 48 34 -38 -53 -62 -40 -42 -52 hvcurveto
          endchar
        </CharString>
        <CharString name="dieresis">
          579 138 hstem
          88 420 vstem
          463 581 -100 callsubr
          endchar
        </CharString>
        <CharString name="divide">
          57 130 57 118 57 130 hstem
          49 473 cntrmask 11100000
          378 419 rmoveto
          28 130 rlineto
          -142 hlineto
          -27 -130 rlineto
          285 -57 rmoveto
          -450 hlineto
          -23 -118 rlineto
          449 hlineto
          -191 -187 rmoveto
          28 130 rlineto
          -141 hlineto
          -28 -130 rlineto
          endchar
        </CharString>
        <CharString name="dollar">
          -69 213 332 211 hstem
          95 145 94 144 vstem
          237 -69 rmoveto
          26 104 rlineto
          159 7 56 62 63 124 -238 104 56 vvcurveto
          34 74 4 183 -50 vhcurveto
          26 125 -33 7 -32 5 -28 3 rlinecurve
          35 108 rlineto
          -125 hlineto
          -29 -102 rlineto
          -156 -4 -60 -64 -66 -122 239 -98 -60 vvcurveto
          -36 -84 -2 -196 46 vhcurveto
          -26 -125 42 -7 39 -6 36 -3 rlinecurve
          -32 -107 rlineto
          endchar
        </CharString>
        <CharString name="dotaccent">
          579.5 138 hstem
          187 198 vstem
          340 580 -47 callsubr
          endchar
        </CharString>
        <CharString name="dotlessi">
          -44 callsubr
          28 callgsubr
          493 54 -97 callsubr
        </CharString>
        <CharString name="e">
          -13 callgsubr
          491 60 -107 callsubr
        </CharString>
        <CharString name="eacute">
          -13 callgsubr
          206 635 -107 callgsubr
          285 -575 -107 callsubr
        </CharString>
        <CharString name="ebreve">
          -24 callgsubr
          57 107 -16 callgsubr
          510 775 -102 callgsubr
          -98 -668 -107 callsubr
        </CharString>
        <CharString name="ecaron">
          -13 callgsubr
          352 569 -94 callsubr
          148 -509 -107 callsubr
        </CharString>
        <CharString name="ecircumflex">
          -13 callgsubr
          467 572 -84 callsubr
          119 -608 -107 callsubr
        </CharString>
        <CharString name="edieresis">
          -24 callgsubr
          72 138 -16 callgsubr
          534 596 -100 callsubr
          332 -533 -107 callsubr
        </CharString>
        <CharString name="edotaccent">
          -24 callgsubr
          72.5 138 -16 callgsubr
          423 595 -47 callsubr
          221 -534 -107 callsubr
        </CharString>
        <CharString name="egrave">
          -24 callgsubr
          108 -20 -16 callgsubr
          525 630 -93 callgsubr
          -6 -513 -107 callsubr
        </CharString>
        <CharString name="eight">
          -13 107 422 114 hstemhm
          34 130 -49 129 99 125 hintmask 11011000
          468 161 rmoveto
          63 -47 55 -51 49 vhcurveto
          45 26 55 30 67 35 -40 78 rcurveline
          -77 -39 -64 -35 -54 -31 rrcurveto
          -33 32 -25 29 26 vvcurveto
          35 40 17 150 -32 vhcurveto
          40 131 rlineto
          -230 17 -129 -84 -102 vvcurveto
          -51 33 -46 41 -40 vhcurveto
          hintmask 11101000
          -124 -83 -31 -54 -59 vvcurveto
          -83 71 -58 123 vhcurveto
          hintmask 11011000
          140 100 79 95 hvcurveto
          hintmask 11101000
          -212 -67 rmoveto
          -48 -44 20 42 24 14 27 81 54 hvcurveto
          45 -40 39 -35 -34 vvcurveto
          -35 -38 -23 -49 vhcurveto
          endchar
        </CharString>
        <CharString name="eight.den">
          21 callsubr
          55 callgsubr
          hintmask 11101100
          367 -104 -58 callsubr
        </CharString>
        <CharString name="eight.inf">
          -160 79 252 86 hstemhm
          58 29 callsubr
          hintmask 11011000
          379 -44 -58 callgsubr
        </CharString>
        <CharString name="eight.num">
          415 79 139 -20 133 86 hstemhm
          156 29 callsubr
          hintmask 11101100
          477 531 -58 callsubr
        </CharString>
        <CharString name="eight.small">
          -10 79 252 86 hstemhm
          80 29 callsubr
          hintmask 11011000
          401 106 -58 callgsubr
        </CharString>
        <CharString name="eight.sup">
          315 79 243 -20 29 86 hstemhm
          136 29 callsubr
          hintmask 11001100
          457 431 -65 callgsubr
          hintmask 11101100
          -96 callsubr
          hintmask 11010100
          -39 callsubr
          hintmask 11001100
          29 callgsubr
          hintmask 11010100
          -86 callsubr
        </CharString>
        <CharString name="ellipsis">
          0 175 hstem
          -26 171 12 171 12 171 cntrmask 01110000
          471 39 callgsubr
          -52 39 callgsubr
          -52 39 callgsubr
          endchar
        </CharString>
        <CharString name="emacron">
          -24 callgsubr
          85 115 -16 callgsubr
          561 722 -52 callgsubr
          -48 -547 -107 callsubr
        </CharString>
        <CharString name="emdash">
          247 110 hstem
          59 471 vstem
          530 357 rmoveto
          -449 67 callgsubr
          449 hlineto
          endchar
        </CharString>
        <CharString name="endash">
          247 110 hstem
          67 436 vstem
          503 357 rmoveto
          -415 hlineto
          -21 -110 rlineto
          415 hlineto
          endchar
        </CharString>
        <CharString name="eogonek">
          87 callsubr
          111 116 79 74 151 112 hstemhm
          42 134 -5 125 88 131 hintmask 11110110
          437 1 callgsubr
          48 115 61 80 42 vhcurveto
          -13 71 rlineto
          hintmask 11111010
          -234 -43 -62 10 -6 87 rrcurveto
          -81 callgsubr
          -117 76 -90 152 14 vhcurveto
          hintmask 11010110
          -70 -40 -29 -43 -39 vvcurveto
          hintmask 11110110
          55 callsubr
          hintmask 11111010
          -115 579 -77 callgsubr
        </CharString>
        <CharString name="equal">
          137 119 100 118 hstem
          40 492 vstem
          532 474 rmoveto
          -425 89 callsubr
          426 hlineto
          -19 -100 rmoveto
          -426 hlineto
          -24 -119 rlineto
          426 hlineto
          endchar
        </CharString>
        <CharString name="eth">
          -15 110 261 107 165 -20 hstem
          38 141 195 137 vstem
          232 -15 rmoveto
          159 120 139 194 89 -27 80 -46 74 hvcurveto
          78 22 -19 76 -109 -31 -25 31 -28 29 -31 28 rlinecurve
          -110 -66 22 -20 20 -20 18 -20 rlinecurve
          -97 -27 22 -76 128 36 14 -20 11 -20 9 -21 rlinecurve
          1 -6 -7 0 -7 hhcurveto
          -156 -127 -131 -153 -116 75 -78 119 hvcurveto
          24 110 rmoveto
          -49 -28 41 68 78 45 74 64 18 32 -7 -12 35 hvcurveto
          1 -10 0 -11 -11 vvcurveto
          -116 -44 -94 -74 vhcurveto
          endchar
        </CharString>
        <CharString name="exclam">
          0 154 hstem
          137 309 vstem
          320 257 rmoveto
          126 421 rlineto
          -180 hlineto
          -40 -421 rlineto
          76 -257 rmoveto
          82 callgsubr
          -165 hlineto
          -30 -154 rlineto
          endchar
        </CharString>
        <CharString name="exclamdown">
          466 154 hstem
          117 309 vstem
          261 620 rmoveto
          -30 -154 rlineto
          165 hlineto
          82 callgsubr
          -183 -257 rmoveto
          -126 -421 rlineto
          180 hlineto
          40 421 rlineto
          endchar
        </CharString>
        <CharString name="f">
          -178 108 294.5 38 callgsubr
          28 rmoveto
          65 -26 68 -69 66 vhcurveto
          163 -5 21 112 -266 -2 rlineto
          129 42 66 98 61 42 callgsubr
          -137 -146 -169 -206 -74 hvcurveto
          -60 hlineto
          -20 -89 50 -16 rlineto
          -12 -53 -6 -54 -53 vvcurveto
          -161 63 -83 98 102 93 86 120 vhcurveto
          -144 -98 rmoveto
          -43 -32 34 111 40 3 41 7 40 hvcurveto
          84 -61 37 -68 -63 vvcurveto
          -44 -18 -30 -38 vhcurveto
          endchar
        </CharString>
        <CharString name="f.lig">
          -150 108 266.5 38 callgsubr
          43 rmoveto
          60 -26 63 -67 61 vhcurveto
          161 -5 21 112 -268 -2 rlineto
          128 42 67 99 62 42 callgsubr
          -138 -147 -173 -202 -73 hvcurveto
          -59 hlineto
          -20 -89 49 -15 rlineto
          -11 -49 -6 -48 -47 vvcurveto
          -154 63 -79 98 102 93 80 113 vhcurveto
          -144 -85 rmoveto
          -43 -32 31 103 35 3 36 5 36 hvcurveto
          86 -58 37 -62 -57 vvcurveto
          -40 -18 -24 -38 vhcurveto
          endchar
        </CharString>
        <CharString name="five">
          -3 125 -101 -21 500.5 30 callgsubr
          hstemhm
          352 131 hintmask 10110000
          483 212 rmoveto
          72 -55 69 -173 38 vhcurveto
          24 110 223 -1 36 120 rlineto
          -359 hlineto
          -69 -316 rlineto
          177 -29 65 -35 -47 vvcurveto
          -47 -67 -41 -226 24 85 callgsubr
          317 -26 123 125 113 vvcurveto
          endchar
        </CharString>
        <CharString name="five.den">
          -6 callgsubr
          hstem
          266 106 vstem
          372 -76 -103 callgsubr
        </CharString>
        <CharString name="five.inf">
          -152 73 callgsubr
          278 106 vstem
          384 -16 -103 callgsubr
        </CharString>
        <CharString name="five.num">
          423 25 callgsubr
          376 106 hintmask 10110000
          -3 callsubr
          hintmask 01110000
          -78 callgsubr
          hintmask 10110000
          -41 callsubr
        </CharString>
        <CharString name="five.small">
          -2 73 callgsubr
          300 106 vstem
          406 134 -103 callgsubr
        </CharString>
        <CharString name="five.sup">
          323 91 97 -20 139.5 17 callsubr
          hstem
          356 106 vstem
          462 459 -103 callgsubr
        </CharString>
        <CharString name="fiveeighths">
          45 callgsubr
          75 25 callgsubr
          46 102 -47 100 67 99 9 106 hintmask 1111101010100000
          -3 callsubr
          hintmask 1111011010100000
          -78 callgsubr
          hintmask 1111101010100000
          -38 callsubr
          -429 -297 -69 callsubr
          hintmask 1111101011100000
          -78 callsubr
          hintmask 1111101100100000
          -39 callsubr
          hintmask 1111101011100000
          29 callgsubr
          hintmask 1111101101100000
          -86 callsubr
        </CharString>
        <CharString name="fivesixths">
          90 callgsubr
          230 86 75 25 callgsubr
          55 68 callgsubr
          -4 106 hintmask 1111011010000000
          -3 callsubr
          hintmask 1110111010000000
          -78 callgsubr
          hintmask 1111011100000000
          -11 -95 rlineto
          hintmask 1111011010000000
          237 -16 88 76 76 vvcurveto
          hintmask 1111011100000000
          -429 -297 -69 callsubr
          136 -568 -99 callgsubr
        </CharString>
        <CharString name="four">
          21 -21 111 119 390 -20 28 -20 hstemhm
          30 483 hintmask 11011000
          480 111 rmoveto
          33 119 rlineto
          -60 hlineto
          37 190 -127 -10 -36 -180 rlineto
          -156 hlineto
          hintmask 11101000
          70 105 52 108 61 177 rrcurveto
          hintmask 11011000
          -146 8 -54 -182 -47 -115 -71 -130 rlinecurve
          -6 -90 rlineto
          274 hlineto
          -22 -111 rlineto
          126 hlineto
          22 111 rlineto
          endchar
        </CharString>
        <CharString name="four.den">
          -143 88 hstem
          43 358 vstem
          376 -143 -93 callsubr
        </CharString>
        <CharString name="four.inf">
          -83 88 hstem
          55 358 vstem
          388 -83 -93 callsubr
        </CharString>
        <CharString name="four.num">
          492 88 hstem
          153 358 vstem
          486 492 -93 callsubr
        </CharString>
        <CharString name="four.small">
          0 155 -88 88 hstemhm
          77 358 hintmask 01100000
          410 67 rmoveto
          hintmask 10100000
          -80 callsubr
          hintmask 01100000
          -43 callgsubr
          hintmask 10100000
          -13 -67 rlineto
          99 hlineto
          hintmask 01100000
          13 67 rlineto
          endchar
        </CharString>
        <CharString name="four.sup">
          392 88 hstem
          133 358 vstem
          466 392 -93 callsubr
        </CharString>
        <CharString name="fourfifths">
          5 callgsubr
          144 88 hstem
          266 106 vstem
          486 492 -98 callgsubr
          -393 -230 -29 callgsubr
        </CharString>
        <CharString name="fraction">
          -160 921 hstem
          -62 681 vstem
          49 -160 rmoveto
          570 862 -110 59 -571 -863 rlineto
          endchar
        </CharString>
        <CharString name="fraction.afrc">
          262 86 hstem
          53 455 vstem
          53 262 -69 callsubr
          endchar
        </CharString>
        <CharString name="g">
          -171 127 76 124 252 112 6 -20 47 callsubr
          hintmask 11101100
          230 156 -72 callgsubr
          hintmask 11011100
          -9 callsubr
          hintmask 11101100
          -77 callsubr
        </CharString>
        <CharString name="gbreve">
          52 callgsubr
          77 107 47 callsubr
          hintmask 11011100
          519 779 -102 callgsubr
          -368 -576 -67 callsubr
        </CharString>
        <CharString name="gcommaaccent">
          52 callgsubr
          47 callsubr
          hintmask 11011000
          445 791 42 callsubr
          -215 -635 -72 callgsubr
          hintmask 10111000
          -9 callsubr
          hintmask 11011000
          -77 callsubr
        </CharString>
        <CharString name="gdotaccent">
          52 callgsubr
          92.5 138 47 callsubr
          hintmask 11011100
          432 599 -47 callsubr
          -49 -442 -67 callsubr
        </CharString>
        <CharString name="germandbls">
          -10 121 -111 111 485 113 hstemhm
          375 141 -129 143 hintmask 10110000
          221 -10 rmoveto
          222 -4 73 80 91 vvcurveto
          68 -45 64 -60 62 vhcurveto
          hintmask 01101000
          68 76 51 70 80 vvcurveto
          67 -47 65 -105 -140 -99 -100 -156 -30 vhcurveto
          -89 -453 91 callgsubr
          89 460 rlineto
          96 18 33 40 41 hhcurveto
          31 15 -24 -31 -54 -41 -56 -93 -111 hvcurveto
          hintmask 10110000
          85 -83 37 -56 -38 vvcurveto
          -37 -42 1 -99 8 vhcurveto
          endchar
        </CharString>
        <CharString name="grave">
          615 -20 hstem
          123 312 vstem
          435 615 -93 callgsubr
          endchar
        </CharString>
        <CharString name="greater">
          624 -20 hstem
          50 447 vstem
          107 -25 rmoveto
          369 238 21 117 -282 294 -96 -93 243 -241 -2 -12 -310 -193 rlineto
          endchar
        </CharString>
        <CharString name="greaterequal">
          -1 119 404 -20 123 -20 hstem
          14 501 vstem
          360 385 rmoveto
          -1 -7 -279 -112 24 -113 393 166 18 105 -310 201 -75 -103 rlineto
          332 -404 70 callsubr
        </CharString>
        <CharString name="guillemotleft">
          6 -21 539 75 callsubr
          19 561 hintmask 10110000
          145 -15 13 callsubr
          rlineto
          hintmask 11010000
          60 callgsubr
        </CharString>
        <CharString name="guillemotleft.cap">
          45 541 hstem
          30 561 vstem
          156 45 13 callsubr
          60 callgsubr
        </CharString>
        <CharString name="guillemotright">
          8 -21 23 -21 hstemhm
          -7 561 hintmask 10100000
          332 -13 88 callsubr
          58 callsubr
          hintmask 01100000
          77 callgsubr
          51 callsubr
        </CharString>
        <CharString name="guillemotright.cap">
          515 -20 23 -20 hstemhm
          4 561 hintmask 01100000
          343 47 88 callsubr
          rlineto
          hintmask 10100000
          58 callsubr
          77 callgsubr
          rlineto
          hintmask 01100000
          51 callsubr
        </CharString>
        <CharString name="guilsinglleft">
          -26 558 hstem
          98 373 vstem
          284 -26 32 callgsubr
        </CharString>
        <CharString name="guilsinglleft.cap">
          34 558 hstem
          109 373 vstem
          295 34 32 callgsubr
        </CharString>
        <CharString name="guilsinglright">
          -22 558 hstem
          74 373 vstem
          152 -22 31 callsubr
        </CharString>
        <CharString name="guilsinglright.cap">
          38 558 hstem
          85 373 vstem
          163 38 31 callsubr
        </CharString>
        <CharString name="h">
          48 callgsubr
          521 -20 9 callgsubr
          hintmask 10110000
          70 callgsubr
          hintmask 01101000
          3 callgsubr
          -56 -57 -30 -56 -58 vhcurveto
          53 271 46 callgsubr
          64 330 rlineto
          38 40 34 21 17 callgsubr
          hintmask 10110000
          63 callgsubr
        </CharString>
        <CharString name="hbar">
          48 callgsubr
          385 132 0 -20 65 86 9 callgsubr
          hintmask 10011100
          70 callgsubr
          hintmask 01011010
          45 57 150 98 vvcurveto
          55 -21 48 -71 -57 -57 -30 -57 -58 vhcurveto
          26 132 rlineto
          121 hlineto
          17 86 rlineto
          -121 hlineto
          11 58 -138 -10 -9 -48 rlineto
          -55 hlineto
          -17 -87 rlineto
          55 hlineto
          -109 -561 rlineto
          136 hlineto
          hintmask 10101010
          63 325 rlineto
          39 40 35 21 17 callgsubr
          hintmask 10011100
          -67 -55 -140 -75 8 callgsubr
          endchar
        </CharString>
        <CharString name="hcoslug">
          -100 75 5 10 -6 10 -4 11 -10 10 -9 7 0 12 -11 11 -7 15 -15 26 -25 26 -15 8 -8 15 -12 12 0 14 -9 10 -10 19 -9 11 2 8 -7 32 71.5 22.5 hstemhm
          50 64 10 16 -3 8 5 40 -35 12 -1 12 14 10 -2 10 -10 42 -31 9 -1 7 3 12 -6 11 9 40 -29 13 -9 10 0 12 -4 11 -2 12 -5 16 18 11 10 8 hintmask 000000100000000000010100000100000100000100100000
          500 700 rmoveto
          -450 hlineto
          hintmask 100000000000000000011100000001000000010000000000
          -800 450 vlineto
          -300 396 rmoveto
          -17 11 -11 17 -16 vhcurveto
          9 13 5 12 12 vvcurveto
          18 -9 11 -13 -12 -8 -9 -13 vhcurveto
          49 -64 rmoveto
          12 -12 9 -12 9 -11 15 25 3 18 -17 17 -7 -7 -10 -9 -14 -9 rrcurveto
          -39 -93 rmoveto
          12 9 3 6 8 hvcurveto
          -21 27 -21 22 -14 13 rrcurveto
          -8 -8 -4 -11 -11 vvcurveto
          -23 17 -18 22 vhcurveto
          91 34 rmoveto
          -22 19 13 -9 15 hhcurveto
          15 9 9 13 8 hvcurveto
          5 -1 rlineto
          -44 -1 -27 -27 -32 hhcurveto
          -22 -17 8 26 -25 hvcurveto
          -23 -21 -25 -11 -32 hhcurveto
          -45 -36 30 40 31 21 24 40 13 hvcurveto
          -16 17 -7 13 22 vvcurveto
          32 31 32 51 46 25 -30 -26 -10 -2 -8 -5 -7 vhcurveto
          20 15 -8 -20 2 hvcurveto
          18 12 14 10 19 hhcurveto
          21 16 -15 -24 -23 -16 -17 -21 -14 -12 7 12 -6 hvcurveto
          -12 -7 -12 -10 -11 -15 rrcurveto
          hintmask 000000000000000000010000000000001000000000000000
          -72 -105 rmoveto
          -8 10 -5 -10 vlineto
          hintmask 000000000000000010000000000000001000000000000000
          -15 vlineto
          -3 1 -1 2 2 1 1 4 1 vhcurveto
          4 -1 rlineto
          -2 -7 -3 -3 -6 -6 -3 4 49 callgsubr
          hintmask 000000000000000001000000000000100000000000000000
          15 -5 5 5 7 vlineto
          hintmask 000000000000000100000001000000000000000000000000
          -75 -21 34 callgsubr
          54 callsubr
          22 hmoveto
          -1 callsubr
          hintmask 000000000000001000000000000000000000001000000000
          132 -1 rmoveto
          0 6 -2 4 -3 -5 -1 -5 49 callgsubr
          0 -6 1 -4 5 3 2 4 49 callgsubr
          54 callsubr
          -120 -9 rmoveto
          4 hlineto
          hintmask 000000000000000001000100000000000000000000000000
          19 -4 5 vlineto
          hintmask 000000000000000000010000000100000000000000000000
          13 -6 hlineto
          4 2 3 3 5 hhcurveto
          7 2 -5 -6 hvcurveto
          hintmask 000000000000000100000000000000100000000000000000
          -14 5 -5 vlineto
          hintmask 000000000010000000000000000100000000000000000000
          -17 5 3 hlineto
          hintmask 000000000000000001000000000100000000000000000000
          13 vlineto
          3 -1 3 -3 -3 -3 -3 -5 vhcurveto
          -11 3 -5 vlineto
          54 callsubr
          -16 hlineto
          -71 5 rmoveto
          6 hlineto
          hintmask 000000000000000000100100000000000000000000000000
          31 -6 5 vlineto
          hintmask 000000000000000000010000010000000000000000000000
          38 hlineto
          hintmask 000000000000000001000000010000000000000000000000
          -15 -5 vlineto
          8 -2 -1 2 -6 hhcurveto
          -8 hlineto
          hintmask 000000000000000000100010000000000000000000000000
          -14 3 vlineto
          4 0 1 5 1 hvcurveto
          5 hlineto
          hintmask 000000000000000100000001000000000000000000000000
          -17 -5 vlineto
          5 -1 0 1 -4 hhcurveto
          -3 hlineto
          hintmask 000000000000000100000010000000000000000000000000
          -12 7 -5 vlineto
          54 callsubr
          -23 hlineto
          hintmask 000000000000000010000000000000001000000000000000
          133 10 rmoveto
          5 hlineto
          -4 3 3 -3 3 hhcurveto
          3 1 2 1 hvcurveto
          hintmask 000000000000000000100000000000001000000000000000
          7 -18 -4 12 vvcurveto
          4 4 5 7 3 3 -1 -3 2 vhcurveto
          1 4 rlineto
          5 -10 -5 hlineto
          4 -3 -2 1 -3 hhcurveto
          -2 -2 -1 -2 hvcurveto
          hintmask 000000000010000000000000000000000001000000000000
          -5 18 2 -11 vvcurveto
          -5 -3 -4 -7 -5 -3 2 2 -2 vhcurveto
          -1 -3 rlineto
          -5 hlineto
          hintmask 000000000000000000100000000000000001000000000000
          38 38 rmoveto
          -5 5 hlineto
          hintmask 000000000000000000010000000000000000001000000000
          14 hlineto
          hintmask 000000000000000000100000000000000000001000000000
          -20 vlineto
          4 1 4 3 4 hhcurveto
          hintmask 000000000100000000000000000000000000000100000000
          7 0 5 -6 0 -9 0 -7 -3 -9 0 flex1
          -6 -3 2 4 -2 hvcurveto
          -3 -6 rlineto
          -4 hlineto
          hintmask 100000000000000000010000000000000000000100000000
          39 -6 rmoveto
          3 3 2 4 hvcurveto
          -3 7 -9 18 0 vvcurveto
          -3 5 18 -5 -4 hlineto
          7 -15 6 15 rlineto
          -4 5 13 -5 -4 hlineto
          hintmask 000000001000000000000000000000000000000100000000
          -10 -24 rlineto
          -7 -3 -4 -5 -6 hhcurveto
          -6 -3 3 4 3 2 2 3 hvcurveto
          hintmask 100000000000000000010000000000000000000100000000
          5 1 -5 -2 -2 hvcurveto
          hintmask 000000010000000000000000000000000000000000000000
          45 -24 rmoveto
          -6 -4 vlineto
          -2 -4 -2 -3 -3 -3 rrcurveto
          2 -2 2 -2 1 1 1 1 1 hflex1
          3 -1 rlineto
          -5 -1 -2 -4 -6 hhcurveto
          hintmask 100000000000000000000000000000000000000010000000
          -4 0 -2 2 -3 3 -3 -3 -4 -2 -6 flex1
          -7 -5 4 6 6 4 3 6 2 hvcurveto
          -3 3 -2 3 4 vvcurveto
          hintmask 000000000001000000000000000000000000000001000000
          5 4 6 9 6 4 -4 -5 -5 -3 -2 -5 -3 vhcurveto
          2 -2 4 -5 3 -3 2 2 2 3 1 2 rrcurveto
          -5 6 hlineto
          hintmask 000000000100000000000000000000000100000000000000
          -114 4 rmoveto
          11 4 hlineto
          -3 -2 2 2 2 1 1 0 hvcurveto
          0 -1 1 -2 -2 -2 -2 -6 vhcurveto
          hintmask 100000000000000000000000000000000000000000100000
          132 -13 rmoveto
          hintmask 000100000000000000000000000000000000000000100000
          15 9 8 11 vhcurveto
          hintmask 000100000000000000000000000000000000000000000000
          5 4 -2 -3 3 hvcurveto
          4 6 vlineto
          -16 -6 vlineto
          hintmask 000000100000000000000000000000000000000000000000
          9 -3 -2 3 -6 hhcurveto
          -6 -4 -5 -12 hvcurveto
          74 callgsubr
          -11 4 -6 8 vhcurveto
          hintmask 000010000000000000000000000000000000000000000000
          6 3 6 6 1 hvcurveto
          6 hlineto
          hintmask 100000000000000000000000000000000000000000000000
          -10 -1 -6 -7 -11 hhcurveto
          hintmask 100000000000000000000000000000000000000000100000
          -13 -8 7 14 hvcurveto
          hintmask 000000100000000000000000000000000000000001000000
          -29 4 rmoveto
          2 1 2 3 3 vvcurveto
          3 -2 2 -3 -2 -2 -1 -3 -2 2 -3 3 -3 vhcurveto
          hintmask 010000000000000000000000000000000000100000000000
          -68 -11 rmoveto
          72 callsubr
          hintmask 100000000000000000000000000000000000100000000000
          -6 -1 -4 -5 -8 hhcurveto
          -10 -6 6 9 hvcurveto
          hintmask 000000000010000000000000000000000000100000000000
          10 7 6 8 11 4 -7 -10 -1 vhcurveto
          hintmask 010000000000000000000000000010000000000000000000
          -89 hmoveto
          72 callsubr
          74 callsubr
          -6 -1 -4 -5 -8 hhcurveto
          hintmask 100000000000000000000000100000000000000000000000
          -10 -6 6 9 hvcurveto
          hintmask 000000000010000000000000100000000000000000000000
          10 7 6 8 vhcurveto
          hintmask 000000000010000000000000000000010000000000000000
          11 4 -7 -10 -1 hvcurveto
          hintmask 010000000000000000000100000010000000000000000000
          -63 2 34 callgsubr
          252 hmoveto
          74 callgsubr
          44 callgsubr
          hintmask 010000000000000000000100000010000000000000000000
          43 callsubr
          hintmask 000001000000000000000000000010000000100000000000
          -138 2 rmoveto
          69 callgsubr
          -70 hmoveto
          69 callgsubr
          hintmask 010000000000000000000000001000000000000000000000
          -22 -2 rmoveto
          -1 callsubr
          74 callgsubr
          252 hmoveto
          -1 callsubr
          74 callsubr
          -208 -10 rmoveto
          4 hlineto
          hintmask 000001000000000000000000000000010000000000000000
          19 -5 5 5 1 vlineto
          hintmask 000000000000010000000000000000010000000000000000
          10 7 4 6 4 2 -1 -1 2 vhcurveto
          8 2 rlineto
          hintmask 010000000000000000000000000000000001000000000000
          -39 4 -5 vlineto
          hintmask 100000000000000000000000000000000100000000000000
          -17 5 4 hlineto
          hintmask 000001000000000000000000000000000100000000000000
          19 -11 vlineto
          hintmask 010000000000000000000000000000000100000000000000
          -19 4 -5 vlineto
          74 callsubr
          -17 hlineto
          hintmask 100000000000000000000000000000000010000000000000
          69 5 rmoveto
          4 hlineto
          hintmask 000001000000000000000000000000000010000000000000
          19 -4 5 vlineto
          hintmask 000000000010000000000000000000000000000010000000
          13 -6 hlineto
          5 2 3 2 4 hhcurveto
          4 2 -2 -4 -3 -2 -2 -3 -2 -3 1 3 hvcurveto
          1 vlineto
          -1 -3 -3 -4 -1 hvcurveto
          hintmask 010000000000000000000000000000000000000010000000
          -12 6 -5 vlineto
          hintmask 100000000000000000000000000000000010000000000000
          -19 hlineto
          hintmask 100000000000000000000100000000000000000000000000
          -183 5 rmoveto
          6 hlineto
          hintmask 000000100000000000000100000000000000000000000000
          31 -6 5 vlineto
          hintmask 000000000000100000000010000000000000000000000000
          21 -5 -5 hlineto
          hintmask 000000100000000000000010000000000000000000000000
          -12 16 12 -5 5 vlineto
          hintmask 000000000000100000000000001000000000000000000000
          21 -5 -6 hlineto
          hintmask 010000000000000000000000001000000000000000000000
          -31 6 -5 vlineto
          hintmask 100000000000000000000010000000000000000000000000
          -21 5 5 hlineto
          hintmask 001000000000000000000010000000000000000000000000
          14 -16 vlineto
          hintmask 010000000000000000000010000000000000000000000000
          -14 5 -5 vlineto
          hintmask 100000000000000000000100000000000000000000000000
          -21 hlineto
          hintmask 100000000000000000000000000000000000000001000000
          234 7 rmoveto
          -2 2 -4 5 -4 4 rrcurveto
          -2 -2 -1 -2 -3 vvcurveto
          -4 3 -3 4 2 2 1 2 2 vhcurveto
          111 -2 rmoveto
          0 -3 -2 -3 -4 -4 -2 3 49 callgsubr
          0 3 2 3 4 4 2 -3 49 callgsubr
          endchar
        </CharString>
        <CharString name="hungarumlaut">
          564 247 hstem
          131 470 vstem
          191 565 -42 callsubr
          endchar
        </CharString>
        <CharString name="hyphen">
          242 121 hstem
          121 329 vstem
          450 363 rmoveto
          -305 hlineto
          -24 -121 rlineto
          306 hlineto
          endchar
        </CharString>
        <CharString name="i">
          -44 callsubr
          74.5 140.5 28 callgsubr
          62 callsubr
          228 -524 -97 callsubr
        </CharString>
        <CharString name="iacute">
          -44 callsubr
          28 callgsubr
          194 620 -107 callgsubr
          299 -566 -97 callsubr
        </CharString>
        <CharString name="ibreve">
          -44 callsubr
          57 107 28 callgsubr
          498 760 -102 callgsubr
          -84 -659 -97 callsubr
        </CharString>
        <CharString name="icircumflex">
          -44 callsubr
          121 75 callsubr
          155 144 hintmask 11101000
          455 557 30 callsubr
          133 -599 -97 callsubr
        </CharString>
        <CharString name="idieresis">
          -44 callsubr
          72 138 28 callgsubr
          522 581 -100 callsubr
          346 -524 -97 callsubr
        </CharString>
        <CharString name="igrave">
          -44 callsubr
          108 -20 28 callgsubr
          513 615 -93 callgsubr
          8 -504 -97 callsubr
        </CharString>
        <CharString name="imacron">
          -44 callsubr
          85 115 28 callgsubr
          549 707 -52 callgsubr
          -34 -538 -97 callsubr
        </CharString>
        <CharString name="iogonek">
          87 callsubr
          110 121 -56 56 -33 callgsubr
          74.5 140.5 hstemhm
          155 144 -129 125 hintmask 11011100
          62 callsubr
          hintmask 10111010
          171 -747 2 callgsubr
          45 60 36 138 64 vhcurveto
          hintmask 11011100
          -89 callgsubr
          -29 -106 24 -65 97 -1 rlinecurve
          hintmask 11011010
          -61 -40 -27 -42 -39 vvcurveto
          hintmask 10111010
          55 callsubr
          endchar
        </CharString>
        <CharString name="j">
          -172 129 434.5 116.5 73.5 144 hstem
          294 97.89 vstem
          484 585 rmoveto
          44 144 -160 -7 -35 -144 rlineto
          -349 -750 rmoveto
          223 2 72 11 47 47 77 77 -67 131 124 411 -130 1 rcurveline
          -231 -49 10 -70 185 5 -68 -289 28 -107 -27 -27 rlinecurve
          -16 -16 -23 -1 -192 6 rrcurveto
          endchar
        </CharString>
        <CharString name="k">
          -51 callgsubr
          endchar
        </CharString>
        <CharString name="kcommaaccent">
          -51 callgsubr
          -89 -465 -95 callgsubr
        </CharString>
        <CharString name="l">
          -10 111 471 -54 callsubr
          endchar
        </CharString>
        <CharString name="l.ultra">
          92 callgsubr
          471 136 hstem
          90 27 callsubr
          vstem
          473 62 rmoveto
          -18 67 -120 -41 -66 1 -26 63 rlinecurve
          182 154 103 155 126 vvcurveto
          79 -43 42 -68 8 callsubr
          -226 146 -57 237 135 vhcurveto
          -242 172 rmoveto
          206 74 132 61 19 16 -13 -33 -63 -55 -108 -115 -123 vhcurveto
          endchar
        </CharString>
        <CharString name="lacute">
          59 callsubr
          334 811 -107 callgsubr
          154 -749 -101 callgsubr
          endchar
        </CharString>
        <CharString name="lcaron">
          59 callsubr
          609 801 -29 callsubr
          -269 -744 -101 callgsubr
          endchar
        </CharString>
        <CharString name="lcommaaccent">
          -10 111 471 -54 callsubr
          -268 -844 -95 callgsubr
        </CharString>
        <CharString name="ldot">
          92 callgsubr
          146 148 177 -54 callsubr
          220 -325 rmoveto
          30 148 rlineto
          -121 hlineto
          -30 -148 rlineto
          endchar
        </CharString>
        <CharString name="less">
          624 -20 hstem
          73 447 vstem
          463 624 rmoveto
          -369 -238 -21 -117 282 -294 96 93 -243 241 2 12 310 193 rlineto
          endchar
        </CharString>
        <CharString name="lessequal">
          -1 119 507 -20 hstem
          14 511 vstem
          241 379 rmoveto
          284 137 -35 109 -388 -201 -22 -105 329 -166 66 107 -235 112 rlineto
          222 -254 70 callsubr
        </CharString>
        <CharString name="lslash">
          92 callgsubr
          471 136 64 96 hstemhm
          97 91 -83 27 callsubr
          hintmask 11110100
          97 712 rmoveto
          -49 30 -36 39 -34 vhcurveto
          72 87 rlineto
          -30 24 -20 15 15 vvcurveto
          46 186 13 247 -70 vhcurveto
          44 107 rlineto
          -330 82 -238 -57 -143 vvcurveto
          391 -650 -66 callgsubr
          vhcurveto
          hintmask 11101100
          -23 callgsubr
          hvcurveto
          -68 -43 32 -54 50 29 rlineto
          hintmask 11110100
          2 callsubr
          rrcurveto
          hintmask 11101100
          -62 callgsubr
          endchar
        </CharString>
        <CharString name="m">
          -9 98 -68 -21 383 126 0 -20 30 -20 hstemhm
          257 107 -11 162 -103 142 hintmask 10001010
          520 20 rmoveto
          -10 69 rlineto
          -19 -2 -8 4 9 vvcurveto
          hintmask 10001101
          46 71 219 85 vvcurveto
          47 -19 22 -40 -39 -46 -24 -48 -46 vhcurveto
          50 1 -18 22 -36 hhcurveto
          -31 -37 -20 -40 -37 hvcurveto
          hintmask 01010100
          5 50 -123 -7 -25 -148 -22 -115 -46 -239 rlinecurve
          129 hlineto
          0 42 213 28 151 vhcurveto
          hintmask 01100101
          13 16 16 6 13 hhcurveto
          22 -1 -19 -38 -8 hvcurveto
          -63 -326 rlineto
          93 hlineto
          71 367 rlineto
          11 15 14 5 12 hhcurveto
          14 4 -7 -15 hvcurveto
          hintmask 10001010
          -44 -59 -219 -57 vvcurveto
          -60 47 -5 120 44 vhcurveto
          endchar
        </CharString>
        <CharString name="macron">
          592 115 hstem
          96 384 vstem
          480 707 -52 callgsubr
          endchar
        </CharString>
        <CharString name="minus">
          244 118 hstem
          61 449 vstem
          510 362 rmoveto
          -426 hlineto
          -23 -118 rlineto
          425 hlineto
          endchar
        </CharString>
        <CharString name="mu">
          -13 118 -114 127 -104 -21 514 -20 24 -20 hstemhm
          -5 531 -216 142 hintmask 10001100
          132 -166 rmoveto
          hintmask 00101100
          24 159 rlineto
          -1 8 8 -1 9 hhcurveto
          hintmask 00101010
          45 41 27 54 43 hvcurveto
          hintmask 10010010
          -2 -94 61 -26 157 94 -11 68 rcurveline
          -65 -16 -3 4 8 39 71 366 rcurveline
          -135 hlineto
          hintmask 01001010
          -52 callsubr
          -6 24 47 9 hvcurveto
          63 322 -138 -10 -131 -677 rlineto
          endchar
        </CharString>
        <CharString name="multiply">
          522 -20 hstem
          37 495 vstem
          383 75 rmoveto
          101 84 -110 137 158 132 -76 94 -158 -131 -112 139 -101 -84 112 -139 -160 -133 77 -94 159 132 rlineto
          endchar
        </CharString>
        <CharString name="n">
          -31 callsubr
          522 46 -92 callgsubr
          endchar
        </CharString>
        <CharString name="nacute">
          -31 callsubr
          192 634 -107 callgsubr
          330 -588 -92 callgsubr
          endchar
        </CharString>
        <CharString name="naira">
          21 -21 146.5 109 -103 109 -106.5 88.5 98 110 -104 110 -89 88 163.5 75 callsubr
          -4 574 hintmask 1001001011000000
          211 406 rmoveto
          7 hlineto
          36 -162 -74 -1 rlineto
          178 -28 rmoveto
          -32 153 67 1 -28 -154 rlineto
          -58 -215 rmoveto
          115 hlineto
          hintmask 1010010101000000
          29 152 61 1 21 109 -60 -1 16 86 60 1 21 110 -60 -1 32 163 rlineto
          -102 hlineto
          hintmask 1001001011000000
          -30 -163 -102 -1 -35 166 -125 -5 rlineto
          hintmask 1100100011000000
          -32 -165 -61 -1 -21 -110 61 1 -17 -86 -61 -1 -21 -109 61 1 -29 -147 rlineto
          107 hlineto
          hintmask 1001001011000000
          29 154 109 2 rlineto
          endchar
        </CharString>
        <CharString name="ncaron">
          -31 callsubr
          338 568 -94 callsubr
          193 -522 -92 callgsubr
          endchar
        </CharString>
        <CharString name="ncommaaccent">
          -31 callsubr
          522 46 -92 callgsubr
          -416 -320 -95 callgsubr
        </CharString>
        <CharString name="nine">
          5 -21 255 96 191 108 hstem
          79 126 184 129 vstem
          110 -16 rmoveto
          293 83 115 177 174 vvcurveto
          142 -79 74 -117 -132 -111 -94 -139 -153 143 -61 144 102 vhcurveto
          -34 -72 -81 -72 -171 -42 rrcurveto
          125 318 rmoveto
          57 35 48 57 47 45 -32 -104 -7 0 -7 -1 -7 vhcurveto
          -105 -67 -78 38 81 vvcurveto
          endchar
        </CharString>
        <CharString name="nine.den">
          -58 83 callsubr
          72 66 callsubr
          101 -225 -91 callgsubr
        </CharString>
        <CharString name="nine.inf">
          2 83 callsubr
          84 66 callsubr
          113 -165 -91 callgsubr
        </CharString>
        <CharString name="nine.num">
          577 83 callsubr
          182 66 callsubr
          211 410 -91 callgsubr
        </CharString>
        <CharString name="nine.small">
          6 -21 167 83 callsubr
          106 66 callsubr
          135 -15 -91 callgsubr
        </CharString>
        <CharString name="nine.sup">
          477 83 callsubr
          162 66 callsubr
          191 310 -91 callgsubr
        </CharString>
        <CharString name="notequal">
          16 -21 142 119 100 118 143 -20 hstem
          40 492 vstem
          466 137 rmoveto
          24 119 rlineto
          -171 hlineto
          55 100 rlineto
          135 hlineto
          23 118 rlineto
          -93 hlineto
          62 111 -101 32 -79 -143 rlineto
          -214 89 callsubr
          172 hlineto
          -55 -100 rlineto
          -136 hlineto
          -24 -119 rlineto
          94 hlineto
          -62 -111 102 -31 79 142 rlineto
          endchar
        </CharString>
        <CharString name="ntilde">
          -5 callgsubr
          82 104 -58 -20 55 104 9 callgsubr
          hintmask 1000110010000000
          440 687 rmoveto
          hintmask 1000101110000000
          -63 callsubr
          hintmask 1000110010000000
          -63 callgsubr
          hintmask 1000101110000000
          82 -641 -11 callsubr
          hintmask 1000101101000000
          -25 callsubr
          hintmask 0101001110000000
          -34 callsubr
          hintmask 1010001101000000
          -18 callgsubr
          hintmask 1000101110000000
          63 callgsubr
        </CharString>
        <CharString name="numbersign">
          14 -21 31 -21 500 -20 36 -20 119 -20 31 -20 hstemhm
          25 515 hintmask 01010110
          230 256 rmoveto
          18 95 85 16 -17 -96 rlineto
          hintmask 10010110
          -134 -278 rmoveto
          26 143 86 16 rlineto
          hintmask 01010110
          -28 -149 95 12 29 154 85 16 24 119 -87 -16 18 96 87 16 23 119 rlineto
          hintmask 01100110
          -88 -16 26 138 -96 -12 -27 -143 -85 -16 rlineto
          hintmask 10011010
          27 148 -95 -12 -29 -153 -83 -15 -23 -120 84 15 -18 -95 -85 -15 -23 -120 86 16 -26 -138 rlineto
          endchar
        </CharString>
        <CharString name="numero">
          0 157 -94 94 463 -20 27 -20 hstemhm
          -14 614 -256 256 hintmask 10010100
          513 627 rmoveto
          -100 -69 -159 -148 -95 32 -36 55 100 69 159 148 95 -32 36 -55 hvcurveto
          -347 -627 rmoveto
          87 hlineto
          hintmask 10100100
          121 620 rlineto
          -113 hlineto
          -39 -257 rlineto
          -2 hlineto
          -21 257 rlineto
          -92 hlineto
          -121 -620 rlineto
          113 hlineto
          46 299 rlineto
          3 hlineto
          hintmask 01010100
          367 -236 rmoveto
          hintmask 10010100
          19 94 rlineto
          -224 hlineto
          hintmask 01011000
          -19 -94 rlineto
          endchar
        </CharString>
        <CharString name="o">
          3 callsubr
          -2 callgsubr
          37 196 -105 callsubr
        </CharString>
        <CharString name="oacute">
          3 callsubr
          -2 callgsubr
          193 635 -107 callgsubr
          -156 -439 -105 callsubr
        </CharString>
        <CharString name="obreve">
          3 callsubr
          57 107 -2 callgsubr
          497 775 -102 callgsubr
          -539 -532 -105 callsubr
        </CharString>
        <CharString name="ocircumflex">
          3 callsubr
          -2 callgsubr
          454 572 -84 callsubr
          -322 -472 -105 callsubr
        </CharString>
        <CharString name="odieresis">
          3 callsubr
          72 138 -2 callgsubr
          521 596 -100 callsubr
          -109 -397 -105 callsubr
        </CharString>
        <CharString name="oe">
          -11 107 -104 114 301 110 -107 107 hstemhm
          12 129 315 128 hintmask 01011100
          256 371 rmoveto
          hintmask 10011100
          -71 -38 -204 -52 -16 -9 16 31 77 45 190 48 vhcurveto
          hintmask 01011100
          14 8 -14 -25 hvcurveto
          hintmask 01101100
          181 36 rmoveto
          13 6 -10 -18 -34 -21 -59 -73 -21 hvcurveto
          74 14 28 68 33 hhcurveto
          96 -344 rmoveto
          -12 65 rlineto
          -132 -37 -37 8 70 6 0 7 7 vvcurveto
          165 25 67 92 94 vvcurveto
          hintmask 10011100
          78 -44 39 -61 -46 -44 -28 -43 -37 vhcurveto
          44 -19 -36 27 -47 hhcurveto
          -136 -102 -192 -170 -105 47 -61 75 48 46 30 45 38 hvcurveto
          hintmask 01101100
          31 -82 84 -28 152 109 rrcurveto
          endchar
        </CharString>
        <CharString name="ogonek">
          87 callsubr
          143 -21 hstem
          103 125 vstem
          365 53 rmoveto
          -192 -54 -70 -69 -62 vvcurveto
          55 callsubr
          59 callgsubr
          endchar
        </CharString>
        <CharString name="ograve">
          3 callsubr
          108 -20 -2 callgsubr
          512 630 -93 callgsubr
          -447 -377 -105 callsubr
        </CharString>
        <CharString name="ohungarumlaut">
          3 callsubr
          103 -20 21 -20 hstemhm
          4 callgsubr
          hintmask 11011100
          228 580 -69 callgsubr
          hintmask 11101100
          40 callgsubr
          -347 -429 -105 callsubr
        </CharString>
        <CharString name="omacron">
          3 callsubr
          85 115 -2 callgsubr
          548 722 -52 callgsubr
          -489 -411 -105 callsubr
        </CharString>
        <CharString name="one">
          0 116 522 -20 hstem
          39 441 vstem
          447 hmoveto
          33 117 rlineto
          -137 hlineto
          101 521 -135 -11 -14 -74 -145 -15 -17 -100 rlineto
          139 hlineto
          -62 -322 rlineto
          -148 hlineto
          -23 -116 rlineto
          endchar
        </CharString>
        <CharString name="one.den">
          -210 37 callgsubr
          39 334 vstem
          353 -210 rmoveto
          -50 callgsubr
        </CharString>
        <CharString name="one.inf">
          -150 37 callgsubr
          51 334 vstem
          365 -150 rmoveto
          -50 callgsubr
        </CharString>
        <CharString name="one.num">
          425 -21 callgsubr
          149 334 hintmask 10110000
          48 callsubr
          hintmask 01110000
          -83 callgsubr
          hintmask 10110000
          -44 callgsubr
          endchar
        </CharString>
        <CharString name="one.small">
          0 37 callgsubr
          73 334 vstem
          387 hmoveto
          -50 callgsubr
        </CharString>
        <CharString name="one.sup">
          325 37 callgsubr
          129 334 vstem
          443 325 rmoveto
          -50 callgsubr
        </CharString>
        <CharString name="oneeighth">
          -220 79 160 -21 113 86 65 -5 callsubr
          46 102 -47 100 67 99 hintmask 1111101011000000
          48 callsubr
          hintmask 1111011011000000
          -83 callgsubr
          hintmask 1111101011000000
          -33 -162 rlineto
          -111 hlineto
          -17 -88 rlineto
          -96 -163 -67 callgsubr
        </CharString>
        <CharString name="onefifth">
          5 callgsubr
          77 88 -88 89 161 18 callgsubr
          hstemhm
          266 106 hintmask 11110110
          463 425 rmoveto
          hintmask 11101110
          20 89 rlineto
          -101 hlineto
          65 320 -107 -9 -12 -58 -110 -11 -15 -81 rlineto
          107 hlineto
          hintmask 11110110
          -33 -162 rlineto
          -111 hlineto
          -17 -88 rlineto
          -96 -163 -29 callgsubr
        </CharString>
        <CharString name="onehalf">
          -210 90 216 95 71 -5 callsubr
          273 117 -62 callsubr
          276 -558 -70 callsubr
        </CharString>
        <CharString name="onequarter">
          -143 88 317 -5 callsubr
          43 465 hintmask 11101100
          48 callsubr
          hintmask 11011100
          -83 callgsubr
          hintmask 11101100
          -48 callsubr
          306 -491 -93 callsubr
        </CharString>
        <CharString name="onesixth">
          90 callgsubr
          230 -5 callsubr
          55 68 callgsubr
          hintmask 11110111
          48 callsubr
          hintmask 11101111
          -83 callgsubr
          hintmask 11110111
          -48 callsubr
          136 -568 -99 callgsubr
        </CharString>
        <CharString name="onethird">
          -216 82 callsubr
          77 -5 callsubr
          258 109 -62 callsubr
          297 -438 -88 callsubr
        </CharString>
        <CharString name="ordfeminine">
          99 89 56 98 -97 82 215 86 hstemhm
          105 114 96 115 hintmask 11011100
          258 342 rmoveto
          -22 -17 17 37 67 41 79 49 10 16 -3 -6 18 hvcurveto
          -10 -50 -12 -67 -7 -34 rrcurveto
          -23 -24 -25 -17 -17 hhcurveto
          hintmask 10111100
          226 -61 rmoveto
          -7 46 -48 -4 -4 2 5 27 rlinecurve
          50 259 rlineto
          11 -47 -46 6 -40 hhcurveto
          -152 -90 -133 -133 hvcurveto
          hintmask 11011100
          -78 40 -40 50 37 44 27 35 39 vhcurveto
          hintmask 10111100
          1 -67 47 -18 121 60 rrcurveto
          -401 -93 rmoveto
          -17 -89 rlineto
          374 hlineto
          18 89 rlineto
          endchar
        </CharString>
        <CharString name="ordmasculine">
          99 89 56 87 210 87 hstem
          118 113 156 112 vstem
          499 471 rmoveto
          98 -61 59 -97 -130 -93 -108 -118 -98 62 -60 97 130 92 108 119 vhcurveto
          -268 -59 rmoveto
          65 38 64 57 37 24 -28 -52 -65 -39 -65 -57 -37 -23 29 52 vhcurveto
          -140 -224 rmoveto
          -17 -89 rlineto
          339 hlineto
          18 89 rlineto
          endchar
        </CharString>
        <CharString name="oslash">
          49 callsubr
          176 212 -64 callgsubr
        </CharString>
        <CharString name="oslashacute">
          49 callsubr
          193 635 -107 callgsubr
          -17 -423 -64 callgsubr
        </CharString>
        <CharString name="otilde">
          3 callsubr
          62 104 -58 -20 55 104 hstemhm
          4 callgsubr
          hintmask 11100110
          441 688 rmoveto
          hintmask 11011110
          -63 callsubr
          hintmask 11100110
          -63 callgsubr
          hintmask 11011110
          -404 -492 -105 callsubr
        </CharString>
        <CharString name="p">
          -14 115 289 130 -9 -20 29 -20 hstemhm
          380 138 hintmask 10011000
          81 callgsubr
          hintmask 11001000
          62 callgsubr
          hintmask 10011000
          13 callgsubr
          -51 -63 -41 -52 -55 hvcurveto
          hintmask 10101000
          12 84 -135 -8 -19 -149 -42 -204 -62 -326 rlinecurve
          endchar
        </CharString>
        <CharString name="paragraph">
          74 115 435 -20 hstem
          59 128 vstem
          375 189 rmoveto
          -23 -20 3 4 -19 hvcurveto
          59 302 rlineto
          19 21 -1 -3 22 hvcurveto
          -247 -161 rmoveto
          63 26 61 74 27 vhcurveto
          -49 -256 rlineto
          -34 26 -17 36 43 vvcurveto
          70 -438 rmoveto
          35 184 19 -3 20 -1 21 -1 rlinecurve
          -33 -170 115 12 139 708 rlineto
          -341 14 -173 -134 -197 vvcurveto
          -91 43 -70 85 -39 vhcurveto
          -43 -224 rlineto
          endchar
        </CharString>
        <CharString name="parenleft">
          633 -20 hstem
          97 136 vstem
          455 722 -4 callsubr
        </CharString>
        <CharString name="parenleft.cap">
          -160 931 hstem
          107 136 vstem
          465 771 -4 callsubr
        </CharString>
        <CharString name="parenright">
          -208 931 hstem
          305 136 vstem
          83 -208 -4 callgsubr
        </CharString>
        <CharString name="parenright.cap">
          -159 931 hstem
          315 136 vstem
          93 -159 -4 callgsubr
        </CharString>
        <CharString name="percent">
          7 -21 22 -21 645 -20 21 -20 hstemhm
          32 532 -470 203 6 202 hintmask 01011000
          564 571 rmoveto
          -70 62 -462 -584 70 -62 rlineto
          hintmask 01100100
          114 645 rmoveto
          -61 -61 -74 -91 -66 36 -38 45 60 62 74 91 66 -36 38 -45 hvcurveto
          hintmask 10010010
          168 -646 rmoveto
          61 60 78 91 64 -36 36 -45 -61 -60 -77 -91 -64 36 -37 45 hvcurveto
          endchar
        </CharString>
        <CharString name="period">
          0 168 hstem
          139 200 vstem
          309 hmoveto
          30 168 rlineto
          -170 hlineto
          -30 -168 rlineto
          endchar
        </CharString>
        <CharString name="periodcentered">
          217 165 hstem
          175 218 vstem
          362 217 rmoveto
          31 165 rlineto
          -187 hlineto
          -31 -165 rlineto
          endchar
        </CharString>
        <CharString name="peso">
          21 -21 338 112 -102 95 74 109 hstemhm
          27 556 hintmask 10111000
          404 443 rmoveto
          -163 hlineto
          15 74 82 9 52 -32 14 -51 rlinecurve
          -195 -162 rmoveto
          14 67 rlineto
          168 hlineto
          -27 -49 -62 -31 -93 13 rrcurveto
          hintmask 11011000
          352 57 rmoveto
          22 112 rlineto
          -52 hlineto
          -11 120 -117 85 -257 -38 -32 -167 rcurveline
          -60 hlineto
          -22 -112 rlineto
          60 hlineto
          -65 -338 rlineto
          127 hlineto
          31 156 164 24 117 64 45 94 rlinecurve
          endchar
        </CharString>
        <CharString name="plus">
          244 118 hstem
          49 473 vstem
          498 244 rmoveto
          24 118 rlineto
          -162 hlineto
          33 169 rlineto
          -126 hlineto
          -33 -169 rlineto
          -161 89 callsubr
          162 hlineto
          -33 -170 rlineto
          126 hlineto
          33 170 rlineto
          endchar
        </CharString>
        <CharString name="plusminus">
          34 117 143 117 hstem
          15 510 vstem
          452 34 rmoveto
          23 117 rlineto
          -156 hlineto
          28 143 rlineto
          154 hlineto
          24 117 rlineto
          -155 hlineto
          32 163 rlineto
          -127 hlineto
          -32 -163 61 callsubr
          -24 -117 rlineto
          155 hlineto
          -28 -143 61 callsubr
          -23 -117 rlineto
          endchar
        </CharString>
        <CharString name="published">
          7 71 82 296 86 51 callgsubr
          167 124 160 219 145 -86 82 35 callgsubr
          -50 -116 -171 -88 -127 -116 -76 -59 53 124 vhcurveto
          129 -95 rmoveto
          14 74 rlineto
          95 15 52 47 67 vvcurveto
          67 -47 43 -138 -23 vhcurveto
          -56 -290 rlineto
          endchar
        </CharString>
        <CharString name="q">
          -182 121 48 129 -108 -21 420 114 hstemhm
          34 137 108 145 hintmask 10111100
          519 -121 rmoveto
          -11 69 -89 -15 -2 2 7 37 rlinecurve
          100 517 rlineto
          18 -44 -64 14 -49 hhcurveto
          -212 -121 -183 -181 -115 54 -55 63 50 56 34 47 52 hvcurveto
          -25 -135 -24 -127 59 -29 200 102 rlinecurve
          hintmask 11011100
          -296 237 rmoveto
          -29 -23 24 55 93 52 119 63 19 31 -6 -10 33 hvcurveto
          -41 -221 rlineto
          -31 -37 -39 -23 -29 hhcurveto
          endchar
        </CharString>
        <CharString name="question">
          0 151 hstem
          362 160 vstem
          130 540 rmoveto
          155 -17 77 -20 -55 vvcurveto
          -45 -50 -35 -134 -70 vhcurveto
          44 -73 rlineto
          215 105 85 84 85 vvcurveto
          98 -114 59 -246 24 vhcurveto
          98 -680 rmoveto
          30 151 rlineto
          -163 hlineto
          -30 -151 rlineto
          endchar
        </CharString>
        <CharString name="questiondown">
          469 151 hstem
          50 160 vstem
          312 620 rmoveto
          -30 -151 rlineto
          163 hlineto
          30 151 rlineto
          -33 -540 rmoveto
          -155 17 -77 20 55 vvcurveto
          45 50 35 134 70 vhcurveto
          -44 73 rlineto
          -215 -105 -85 -84 -85 vvcurveto
          -98 114 -59 246 -24 vhcurveto
          endchar
        </CharString>
        <CharString name="quotedbl">
          374 304 hstem
          120 423 vstem
          439 374 rmoveto
          97 257 7 47 rlineto
          -156 hlineto
          -50 -304 rlineto
          -115 hmoveto
          97 257 8 47 rlineto
          -157 hlineto
          -50 -304 rlineto
          endchar
        </CharString>
        <CharString name="quotedblbase">
          -143 317 hstem
          67 165 81 165 vstem
          242 -110 rmoveto
          54 -33 112 57 callsubr
          -165 -4 2 -109 -13 -84 -60 -87 rlinecurve
          -239 hmoveto
          54 -33 105 91 67 97 3 127 rlinecurve
          -165 89 callgsubr
          -82 -54 -87 rlinecurve
          endchar
        </CharString>
        <CharString name="quotedblleft">
          374 316 hstem
          95 165 81 165 vstem
          570 658 rmoveto
          -55 32 -104 -90 -67 -97 -3 -127 rlinecurve
          165 4 -3 109 13 81 54 88 rlinecurve
          -239 hmoveto
          -55 80 callsubr
          165 4 -2 109 13 83 60 88 rlinecurve
          endchar
        </CharString>
        <CharString name="quotedblright">
          360 317 hstem
          153 165 80 166 vstem
          328 392 rmoveto
          54 -32 112 57 callsubr
          -166 89 callgsubr
          -84 -60 -88 rlinecurve
          -239 hmoveto
          54 -32 105 91 67 96 3 128 rlinecurve
          -165 89 callgsubr
          -82 -54 -88 rlinecurve
          endchar
        </CharString>
        <CharString name="quoteleft">
          374 316 hstem
          206 169 vstem
          443 658 rmoveto
          -56 80 callsubr
          169 4 -4 109 12 83 60 88 rlinecurve
          endchar
        </CharString>
        <CharString name="quoteright">
          360 317 hstem
          274 169 vstem
          206 392 rmoveto
          56 -32 50 callsubr
          -88 rlinecurve
          endchar
        </CharString>
        <CharString name="quotesinglbase">
          -143 317 hstem
          191 169 vstem
          123 -110 rmoveto
          56 -33 50 callsubr
          -87 rlinecurve
          endchar
        </CharString>
        <CharString name="quotesingle">
          374 304 hstem
          224 216 vstem
          328 374 rmoveto
          106 257 6 47 rlineto
          -165 hlineto
          -51 -304 rlineto
          endchar
        </CharString>
        <CharString name="r">
          16 callgsubr
          506 35 -91 callsubr
          endchar
        </CharString>
        <CharString name="racute">
          16 callgsubr
          244 638 -107 callgsubr
          262 -603 -91 callsubr
          endchar
        </CharString>
        <CharString name="rcaron">
          16 callgsubr
          357 572 -94 callsubr
          158 -537 -91 callsubr
          endchar
        </CharString>
        <CharString name="rcommaaccent">
          16 callgsubr
          506 35 -91 callsubr
          -423 -297 -95 callgsubr
        </CharString>
        <CharString name="registered">
          179 66 156.5 148.5 69 66 hstem
          58 71 360 71 vstem
          323 685 rmoveto
          -156 -109 -111 -164 -141 92 -90 145 156 109 111 164 141 -92 90 -145 hvcurveto
          -4 -66 rmoveto
          103 67 -63 -110 -126 -79 -75 -111 -103 -67 63 110 126 79 75 111 hvcurveto
          10 -300 rmoveto
          78 9 -44 90 rlineto
          38 18 16 23 26 vvcurveto
          46 -51 30 -126 -15 vhcurveto
          -43 -223 rlineto
          75 hlineto
          15 78 9 1 rlineto
          endchar
        </CharString>
        <CharString name="registered.alt">
          7 71 196.5 180.5 87 51 callgsubr
          177 114 145 229 145 -86 87 35 callgsubr
          -58 -116 -181 -78 -109 -126 -76 -59 53 124 vhcurveto
          178 -92 rmoveto
          86 11 -42 118 rlineto
          36 24 30 32 34 vvcurveto
          52 -52 35 -135 -19 vhcurveto
          -55 -282 rlineto
          80 hlineto
          20 106 5 1 rlineto
          endchar
        </CharString>
        <CharString name="ring">
          555 219 hstem
          161 272 vstem
          308 774 -56 callgsubr
          endchar
        </CharString>
        <CharString name="ruble">
          0 196 -98 103 -102 97 53 103 167 107 hstemhm
          430 130 hintmask 10011100
          430 446 rmoveto
          -54 -43 -38 -124 -2 vhcurveto
          32 167 rlineto
          89 8 46 -27 -54 vvcurveto
          -235 -446 rmoveto
          hintmask 00111100
          19 99 rlineto
          179 hlineto
          hintmask 10011100
          28 97 rlineto
          -188 hlineto
          11 59 rlineto
          232 24 84 88 101 vvcurveto
          114 -112 70 -268 -35 vhcurveto
          -51 -265 rlineto
          -63 hlineto
          -20 -103 rlineto
          22 21 0 20 hhcurveto
          hintmask 01011100
          -9 -48 rlineto
          -65 hlineto
          -19 -103 rlineto
          64 hlineto
          hintmask 10011100
          -19 -98 rlineto
          endchar
        </CharString>
        <CharString name="rupee">
          -10 113 -113 116 -91 -21 27 -21 28 -21 619 -20 hstemhm
          365 191 -141 121 hintmask 00100101
          169 -6 rmoveto
          hintmask 00001101
          106 13 -28 265 rlineto
          55 59 77 callsubr
          hintmask 00010101
          -121 -621 rlineto
          100 hlineto
          44 214 5 1 rlineto
          hintmask 10000101
          381 -51 rmoveto
          72 -27 61 -18 52 vhcurveto
          hintmask 10000110
          103 93 -12 82 -85 hhcurveto
          -76 -46 -68 -88 -20 2 -19 4 -19 hvcurveto
          -18 -16 -21 -17 -26 -20 rrcurveto
          hintmask 01000101
          28 -45 20 12 18 12 17 13 rlinecurve
          13 -39 13 -35 -30 vvcurveto
          -46 -18 -13 -105 10 vhcurveto
          hintmask 10000101
          1 -116 rlineto
          217 -4 26 98 80 vvcurveto
          endchar
        </CharString>
        <CharString name="rupeeindia">
          325 95 80 120 hstem
          35 511 vstem
          451 59 rmoveto
          -113 82 -58 41 -61 22 98 22 66 45 28 54 rrcurveto
          68 hlineto
          18 95 rlineto
          -75 hlineto
          -9 31 -20 29 -36 20 rrcurveto
          159 hlineto
          30 120 rlineto
          -406 hlineto
          -29 -118 116 -11 49 -31 15 -40 rlinecurve
          -193 hlineto
          -18 -95 rlineto
          197 hlineto
          -27 -37 -59 -30 -114 -5 -42 -103 rcurveline
          124 -33 35 -23 149 -114 rrcurveto
          endchar
        </CharString>
        <CharString name="s">
          -9 callgsubr
          485 159 -88 callgsubr
          endchar
        </CharString>
        <CharString name="sacute">
          -9 callgsubr
          203 650 -107 callgsubr
          282 -491 -88 callgsubr
          endchar
        </CharString>
        <CharString name="scaron">
          -9 callgsubr
          349 584 -94 callsubr
          145 -425 -88 callgsubr
          endchar
        </CharString>
        <CharString name="scedilla">
          -79 191 -122 122 -122 125 -89 -21 hstemhm
          184 235 -153 118 -37 138 hintmask 10000100
          266 -189 rmoveto
          118 2 rlineto
          hintmask 00010100
          6 105 -34 63 -50 24 rrcurveto
          hintmask 00010010
          134 28 45 61 65 vvcurveto
          82 -83 70 -43 59 vhcurveto
          hintmask 01001000
          -55 callsubr
          hintmask 00100010
          -39 callgsubr
          hintmask 01000100
          -3 -125 rlineto
          25 24 0 1 22 hvcurveto
          hintmask 10000100
          -33 -25 -30 -45 -27 -66 -3 callgsubr
        </CharString>
        <CharString name="schwa">
          -14 112 151 74 79 118 hstem
          34 131 208 134 vstem
          188 -14 rmoveto
          177 142 176 163 165 -149 109 -300 -151 hvcurveto
          13 -71 234 43 62 -10 6 -87 rlinecurve
          -222 -16 -117 -71 -117 vvcurveto
          -82 59 -51 95 vhcurveto
          39 112 rmoveto
          -38 -24 22 31 58 75 31 126 9 hvcurveto
          -80 -18 -52 -71 -69 hhcurveto
          endchar
        </CharString>
        <CharString name="scommaaccent">
          -9 callgsubr
          485 159 -88 callgsubr
          -391 -431 -95 callgsubr
        </CharString>
        <CharString name="section">
          -113 109 523 111 hstemhm
          49 131 -38 142 7 143 -57 132 hintmask 11100100
          180 255 rmoveto
          27 38 24 44 12 vhcurveto
          58 -32 57 -24 -31 vvcurveto
          -21 -27 -20 -64 -14 vhcurveto
          -56 27 -50 22 30 vvcurveto
          hintmask 11001000
          254 -223 rmoveto
          42 -28 31 -38 26 vhcurveto
          hintmask 11010100
          86 24 55 36 59 117 -225 37 71 vvcurveto
          24 20 20 35 36 21 -21 -56 14 vhcurveto
          119 25 rlineto
          107 -17 -44 56 -102 hhcurveto
          -131 -93 -87 -84 -38 20 -30 28 -25 hvcurveto
          hintmask 11101000
          -79 -22 -62 -46 -65 -125 242 -28 -57 vvcurveto
          -31 -53 -11 -187 45 vhcurveto
          -30 -125 rlineto
          hintmask 11001000
          296 -51 117 93 89 vvcurveto
          endchar
        </CharString>
        <CharString name="semicolon">
          312 168 hstem
          182 167 vstem
          370 312 rmoveto
          31 168 rlineto
          -171 hlineto
          -30 -168 rlineto
          -92 -425 rmoveto
          56 -29 116 96 64 95 5 120 rlinecurve
          -167 -2 -2 -109 -13 -83 -59 -88 rlinecurve
          endchar
        </CharString>
        <CharString name="servicemark">
          279 74 206 73 -12 -20 21 -20 hstemhm
          70 86 5 88 hintmask 10011000
          395 344 rmoveto
          64 callsubr
          hintmask 10101000
          73 callsubr
          hintmask 10011000
          -23 161 65 callsubr
          hintmask 11001000
          -98 63 rmoveto
          60 -10 -28 32 -55 hhcurveto
          -71 -47 -49 -58 hvcurveto
          hintmask 10010100
          -80 91 -31 -42 vvcurveto
          -23 -29 -6 -85 32 vhcurveto
          -16 -86 rlineto
          157 -35 61 60 62 vvcurveto
          hintmask 11001000
          73 -93 37 49 vvcurveto
          16 10 8 12 15 9 -13 -22 4 vhcurveto
          endchar
        </CharString>
        <CharString name="seven">
          13 -21 35 -21 490 124 hstemhm
          73 490 hintmask 10110000
          213 -8 rmoveto
          90 171 109 178 127 164 24 115 rcurveline
          -422 hlineto
          -27 -124 rlineto
          275 hlineto
          1 -6 rlineto
          hintmask 01110000
          -126 -159 -104 -160 -87 -165 rrcurveto
          endchar
        </CharString>
        <CharString name="seven.den">
          95 92 hstem
          71 353 vstem
          187 -216 -64 callsubr
          endchar
        </CharString>
        <CharString name="seven.inf">
          155 92 hstem
          83 353 vstem
          199 -156 -64 callsubr
          endchar
        </CharString>
        <CharString name="seven.num">
          730 92 hstem
          181 353 vstem
          297 419 -64 callsubr
          endchar
        </CharString>
        <CharString name="seven.small">
          15 -21 32 -21 300 92 hstemhm
          105 353 hintmask 10110000
          221 -6 -60 callsubr
          rlineto
          hintmask 01110000
          -86 -96 -74 -100 -59 -100 rrcurveto
          endchar
        </CharString>
        <CharString name="seven.sup">
          630 92 hstem
          161 353 vstem
          277 319 -64 callsubr
          endchar
        </CharString>
        <CharString name="seveneighths">
          45 callgsubr
          382 92 55 callgsubr
          hintmask 11111011
          297 419 -64 callsubr
          -128 -168 -73 callsubr
          hintmask 11111101
          -39 callsubr
          hintmask 11111011
          29 callgsubr
          hintmask 11111101
          -86 callsubr
        </CharString>
        <CharString name="six">
          -14 108 191 96 255 -20 hstem
          55 129 184 126 vstem
          251 -14 rmoveto
          132 111 94 139 153 -143 61 -144 -102 hvcurveto
          34 72 81 72 171 42 -30 119 rcurveline
          -293 -83 -115 -177 -174 vvcurveto
          -142 79 -74 117 vhcurveto
          25 108 rmoveto
          -47 -45 32 104 7 0 7 1 7 hvcurveto
          105 67 78 -38 -81 vvcurveto
          -57 -35 -48 -57 vhcurveto
          endchar
        </CharString>
        <CharString name="six.den">
          90 callgsubr
          hstem
          55 68 callgsubr
          vstem
          206 -220 -99 callgsubr
        </CharString>
        <CharString name="six.inf">
          -160 79 107 66 -63 -21 hstemhm
          67 68 callgsubr
          hintmask 10111000
          218 -160 rmoveto
          98 76 61 88 hvcurveto
          hintmask 11011000
          95 -102 40 -104 -60 vhcurveto
          -60 callgsubr
          hintmask 10111000
          -57 callsubr
          hintmask 11011000
          72 36 48 -22 -45 vvcurveto
          hintmask 10111000
          -30 -17 -28 -40 vhcurveto
          endchar
        </CharString>
        <CharString name="six.num">
          415 79 107 66 hstem
          165 68 callgsubr
          vstem
          316 415 -99 callgsubr
        </CharString>
        <CharString name="six.small">
          -10 79 107 66 hstem
          89 68 callgsubr
          vstem
          240 -10 -99 callgsubr
        </CharString>
        <CharString name="six.sup">
          315 79 107 66 hstem
          145 68 callgsubr
          vstem
          296 315 -99 callgsubr
        </CharString>
        <CharString name="slash">
          -194 929 hstem
          -82 713 vstem
          514 735 rmoveto
          -596 -893 124 -36 589 884 rlineto
          endchar
        </CharString>
        <CharString name="space">
          endchar
        </CharString>
        <CharString name="sterling">
          -8 127 -112 -21 256 99 165 128 hstemhm
          417 130 hintmask 10111000
          508 142 rmoveto
          -54 27 -46 -54 -36 -8 -134 29 rlinecurve
          10 34 6 36 5 36 rrcurveto
          152 hlineto
          18 99 rlineto
          -158 hlineto
          5 42 8 38 14 29 rrcurveto
          32 16 25 24 31 hhcurveto
          28 19 -21 -67 hvcurveto
          130 9 rlineto
          133 -39 74 -107 -98 -83 -70 -76 -38 vhcurveto
          -22 -45 -10 -48 -8 -54 rrcurveto
          -68 hlineto
          -20 -99 rlineto
          73 hlineto
          -4 -28 -5 -29 -7 -32 rrcurveto
          hintmask 01111000
          3 -146 -27 -170 133 hhcurveto
          40 38 16 27 29 hvcurveto
          hintmask 10111000
          232 -70 40 25 58 158 rrcurveto
          endchar
        </CharString>
        <CharString name="t">
          -36 callsubr
          endchar
        </CharString>
        <CharString name="tcaron">
          39 callsubr
          448 837 -29 callsubr
          -126 -789 -61 callgsubr
          endchar
        </CharString>
        <CharString name="tcommaaccent">
          -36 callsubr
          -368 -330 -95 callgsubr
        </CharString>
        <CharString name="thorn">
          -14 115 289 130 0 -20 hstemhm
          380 138 hintmask 10110000
          81 callgsubr
          hintmask 11010000
          62 callgsubr
          hintmask 10110000
          13 callgsubr
          -49 -59 -37 -49 -53 hvcurveto
          53 272 -137 -10 -170 -872 rlineto
          endchar
        </CharString>
        <CharString name="three">
          -5 121 -95 -21 500 120 hstemhm
          346 131 hintmask 10110000
          477 183 rmoveto
          66 -52 60 -131 41 vhcurveto
          221 154 14 116 rlineto
          -375 hlineto
          -22 -120 rlineto
          233 hlineto
          -224 -156 -7 -60 rlineto
          145 -39 67 -41 -38 vvcurveto
          -38 -64 -31 -222 32 85 callgsubr
          312 -30 121 114 99 vvcurveto
          endchar
        </CharString>
        <CharString name="three.den">
          -216 82 callsubr
          hstem
          258 109 vstem
          367 -90 -88 callsubr
        </CharString>
        <CharString name="three.inf">
          -156 82 callsubr
          hstem
          270 109 vstem
          379 -30 -88 callsubr
        </CharString>
        <CharString name="three.num">
          419 56 callgsubr
          368 109 hintmask 10110000
          -49 callsubr
          hintmask 01110000
          -17 callgsubr
          hintmask 10110000
          -8 callsubr
          endchar
        </CharString>
        <CharString name="three.small">
          -6 92 -66 -21 306 90 hstemhm
          292 109 hintmask 10110000
          401 120 -86 callgsubr
          hintmask 01110000
          -13 -94 90 callsubr
          -8 callsubr
          endchar
        </CharString>
        <CharString name="three.sup">
          319 82 callsubr
          hstem
          348 109 vstem
          457 445 -88 callsubr
        </CharString>
        <CharString name="threeeighths">
          45 callgsubr
          71 92 7 -20 232 90 55 callgsubr
          1 109 hintmask 1111101010100000
          -49 callsubr
          hintmask 1111011010100000
          -17 callgsubr
          hintmask 1111101010100000
          -8 callsubr
          hintmask 1111101011000000
          -424 -283 -67 callgsubr
        </CharString>
        <CharString name="threefifths">
          5 callgsubr
          71 56 callgsubr
          266 106 -4 109 hintmask 01110101
          -49 callsubr
          hintmask 01101101
          -17 callgsubr
          hintmask 01110101
          -8 callsubr
          hintmask 11110110
          -424 -283 -29 callgsubr
        </CharString>
        <CharString name="threequarters">
          -143 88 317 86 71 56 callgsubr
          368 109 hintmask 11101100
          -49 callsubr
          hintmask 11011100
          -17 callgsubr
          hintmask 11101100
          -8 callsubr
          -424 -283 -69 callsubr
          306 -491 -93 callsubr
        </CharString>
        <CharString name="tilde">
          569 104 -58 -20 55 104 hstemhm
          69 443 hintmask 10010000
          373 673 rmoveto
          hintmask 01110000
          -63 callsubr
          hintmask 10010000
          -63 callgsubr
          endchar
        </CharString>
        <CharString name="trademark">
          551 69 -69 70 hstemhm
          75 520 hintmask 10100000
          304 620 rmoveto
          -215 hlineto
          -14 -69 rlineto
          73 hlineto
          -52 -270 rlineto
          78 hlineto
          52 270 rlineto
          64 hlineto
          hintmask 01100000
          116 70 rmoveto
          65 callsubr
          16 -133 rlineto
          64 callsubr
          hintmask 10100000
          73 callsubr
          endchar
        </CharString>
        <CharString name="two">
          0 119 378 131 hstem
          364 141 vstem
          443 hmoveto
          23 119 rlineto
          -239 hlineto
          178 121 100 93 124 vvcurveto
          137 -130 60 -236 -37 vhcurveto
          -20 -129 rlineto
          187 27 58 -33 -62 vvcurveto
          -90 -121 -88 -207 -137 vhcurveto
          -1 -105 rlineto
          endchar
        </CharString>
        <CharString name="two.den">
          -210 78 callgsubr
          273 117 vstem
          346 -210 -70 callsubr
        </CharString>
        <CharString name="two.inf">
          -150 78 callgsubr
          285 117 vstem
          358 -150 -70 callsubr
        </CharString>
        <CharString name="two.num">
          425 75 callgsubr
          383 117 hintmask 10110000
          -35 callsubr
          hintmask 01110000
          10 callgsubr
          hintmask 10110000
          71 callsubr
        </CharString>
        <CharString name="two.small">
          0 78 callgsubr
          307 117 vstem
          380 hmoveto
          -87 callsubr
          10 callgsubr
          71 callsubr
        </CharString>
        <CharString name="two.sup">
          325 78 callgsubr
          363 117 vstem
          436 325 -70 callsubr
        </CharString>
        <CharString name="twofifths">
          5 callgsubr
          77 75 callgsubr
          266 106 11 117 hintmask 01110101
          -35 callsubr
          hintmask 01101101
          -50 -89 -54 -140 -77 vhcurveto
          hintmask 11110111
          -1 -82 rlineto
          -100 -163 -29 callgsubr
        </CharString>
        <CharString name="twothirds">
          -216 82 callsubr
          77 86 77 75 callgsubr
          258 109 16 117 hintmask 11110101
          -35 callsubr
          hintmask 11101101
          31 callgsubr
          297 -438 -88 callsubr
        </CharString>
        <CharString name="u">
          37 callsubr
          526 46 -41 callgsubr
        </CharString>
        <CharString name="uacute">
          37 callsubr
          207 626 -107 callgsubr
          319 -580 -41 callgsubr
        </CharString>
        <CharString name="ubreve">
          -45 callgsubr
          77 107 14 callsubr
          511 766 -102 callgsubr
          -64 -673 -99 callsubr
        </CharString>
        <CharString name="ucircumflex">
          -45 callgsubr
          141 -20 22 86 callsubr
          hintmask 01011010
          468 563 -65 callsubr
          hintmask 01010110
          22 callgsubr
          rlineto
          hintmask 01101011
          -24 callsubr
          153 -613 -42 callgsubr
        </CharString>
        <CharString name="udieresis">
          -45 callgsubr
          92 138 14 callsubr
          535 587 -100 callsubr
          366 -538 -99 callsubr
        </CharString>
        <CharString name="ugrave">
          -45 callgsubr
          128 -20 14 callsubr
          526 621 -93 callgsubr
          28 -518 -99 callsubr
        </CharString>
        <CharString name="uhungarumlaut">
          -45 callgsubr
          123 -20 21 86 callsubr
          hintmask 01010110
          242 571 -69 callgsubr
          hintmask 01101011
          40 callgsubr
          128 -570 -42 callgsubr
        </CharString>
        <CharString name="umacron">
          -45 callgsubr
          105 115 14 callsubr
          562 713 -52 callgsubr
          -14 -552 -99 callsubr
        </CharString>
        <CharString name="underscore">
          -157 106 hstem
          -42 519 vstem
          477 -51 rmoveto
          -499 hlineto
          -20 -106 rlineto
          499 hlineto
          endchar
        </CharString>
        <CharString name="underscore.alt">
          -157 106 hstem
          -80 591 vstem
          511 -51 rmoveto
          -571 hlineto
          -20 -106 rlineto
          571 hlineto
          endchar
        </CharString>
        <CharString name="uni00A0">
          endchar
        </CharString>
        <CharString name="uogonek">
          87 callsubr
          107 132 -111 -21 521 -20 26 -20 hstemhm
          55 142 6 125 -16 140 hintmask 10101010
          469 1 callgsubr
          29 26 40 172 68 vhcurveto
          hintmask 11010101
          -30 callgsubr
          -76 callsubr
          hintmask 10101101
          -74 callgsubr
          47 57 32 61 57 hvcurveto
          1 -31 9 -21 17 -11 rrcurveto
          hintmask 10101010
          -97 -47 -39 -53 -47 81 callsubr
        </CharString>
        <CharString name="uring">
          -45 callgsubr
          68 219 14 callsubr
          384 780 -56 callgsubr
          142 -734 -99 callsubr
        </CharString>
        <CharString name="v">
          -4 148 363 -20 25 -20 hstemhm
          77 138 -138 501 hintmask 10110000
          263 144 rmoveto
          -8 hlineto
          -16 122 -14 127 -10 119 -138 -10 rcurveline
          15 -166 26 -173 27 -167 rrcurveto
          166 hlineto
          hintmask 11001000
          90 162 98 187 79 162 rrcurveto
          -142 hlineto
          hintmask 10110000
          -56 -118 -56 -124 -61 -121 rrcurveto
          endchar
        </CharString>
        <CharString name="w">
          44 callsubr
          292 hmoveto
          -96 callgsubr
        </CharString>
        <CharString name="wacute">
          44 callsubr
          200 618 -107 callgsubr
          92 -618 rmoveto
          -96 callgsubr
        </CharString>
        <CharString name="wcircumflex">
          53 callgsubr
          141 75 callsubr
          39 538 hintmask 11101000
          461 555 30 callsubr
          -74 -651 rmoveto
          -96 callgsubr
        </CharString>
        <CharString name="wdieresis">
          53 callgsubr
          92 138 hstem
          39 538 vstem
          528 579 -100 callsubr
          139 -576 rmoveto
          -96 callgsubr
        </CharString>
        <CharString name="wgrave">
          44 callsubr
          519 613 -93 callgsubr
          -199 -556 rmoveto
          -96 callgsubr
        </CharString>
        <CharString name="x">
          19 -21 23 -21 24 -21 504 75 callsubr
          -23 598 hintmask 10001100
          324 -2 rmoveto
          hintmask 00110100
          155 5 -115 250 211 254 91 callsubr
          -129 -173 rlineto
          hintmask 01001100
          -71 175 -155 -5 114 -250 -211 -254 83 callgsubr
          129 173 rlineto
          endchar
        </CharString>
        <CharString name="y">
          -1 callgsubr
          439 -52 -82 callgsubr
        </CharString>
        <CharString name="yacute">
          -1 callgsubr
          198 631 -107 callgsubr
          241 -683 -82 callgsubr
        </CharString>
        <CharString name="ycircumflex">
          -1 callgsubr
          459 568 -84 callsubr
          75 -716 -82 callgsubr
        </CharString>
        <CharString name="ydieresis">
          1 callsubr
          92 138 27 callgsubr
          hintmask 11011110
          526 592 -100 callsubr
          288 -641 -51 callsubr
        </CharString>
        <CharString name="yen">
          0 223 -99 99 56 99 242 -20 23 -20 hstemhm
          26 579 hintmask 01101100
          475 124 rmoveto
          hintmask 10110100
          20 99 rlineto
          -151 hlineto
          37 56 rlineto
          125 hlineto
          19 99 rlineto
          -79 hlineto
          159 242 15 callsubr
          -165 -286 rlineto
          hintmask 10101100
          -70 289 -139 -6 68 -239 rlineto
          -80 hlineto
          -19 -99 rlineto
          127 hlineto
          16 -56 61 callsubr
          hintmask 01101100
          -20 -99 rlineto
          158 hlineto
          hintmask 10101100
          -25 -124 rlineto
          136 hlineto
          hintmask 01101100
          23 124 rlineto
          endchar
        </CharString>
        <CharString name="ygrave">
          1 callsubr
          128 -20 27 callgsubr
          hintmask 11011110
          517 626 -93 callgsubr
          -50 -621 -51 callsubr
        </CharString>
        <CharString name="z">
          11 callsubr
          hstem
          25 508 vstem
          434 hmoveto
          -53 callgsubr
        </CharString>
        <CharString name="zacute">
          11 callsubr
          hstem
          25 508 vstem
          197 620 -107 callgsubr
          237 -620 rmoveto
          -53 callgsubr
        </CharString>
        <CharString name="zcaron">
          11 callsubr
          hstem
          25 541 vstem
          343 554 -94 callsubr
          100 -554 rmoveto
          -53 callgsubr
        </CharString>
        <CharString name="zdotaccent">
          11 callsubr
          7 callsubr
          25 508 vstem
          414 580 -47 callsubr
          173 -579 rmoveto
          -53 callgsubr
        </CharString>
        <CharString name="zero">
          -13 112 422 112 hstem
          45 137 207 138 vstem
          45 220 rmoveto
          -154 80 callgsubr
          221 152 79 callsubr
          -221 vhcurveto
          273 301 rmoveto
          39 26 -33 -66 6 hvcurveto
          -200 -104 rlineto
          106 18 49 97 62 hhcurveto
          -64 -422 rmoveto
          -41 -26 35 70 -5 hvcurveto
          203 105 rlineto
          -109 -18 -49 -101 -64 hhcurveto
          endchar
        </CharString>
        <CharString name="zero.alt">
          -13 117 412 117 hstem
          45 134 214 134 vstem
          45 225 rmoveto
          -159 80 callgsubr
          217 156 79 callsubr
          -216 vhcurveto
          134 7 rmoveto
          132 60 152 81 43 30 -40 -88 -133 -60 -151 -82 -43 -29 39 89 vhcurveto
          endchar
        </CharString>
        <CharString name="zero.den">
          -220 67 callsubr
          47 52 callsubr
          47 -59 -83 callsubr
        </CharString>
        <CharString name="zero.inf">
          -160 67 callsubr
          59 52 callsubr
          59 1 -83 callsubr
        </CharString>
        <CharString name="zero.num">
          415 67 callsubr
          157 52 callsubr
          157 576 -83 callsubr
        </CharString>
        <CharString name="zero.small">
          -10 67 callsubr
          81 52 callsubr
          81 151 -83 callsubr
        </CharString>
        <CharString name="zero.sup">
          315 67 callsubr
          137 52 callsubr
          137 476 -83 callsubr
        </CharString>
      <CharString index="0">
        rmoveto
        24 -59 80 18 144 51 79 51 rlinecurve
        -87 106 -66 -58 -110 -75 -64 -34 rlinecurve
        return
      </CharString>
      <CharString index="1">
        rmoveto
        -176 -123 -191 -217 -169 87 -68 115 176 123 191 217 169 -87 68 -115 hvcurveto
        -82 84 callsubr
        -40 -26 34 85 135 52 145 81 40 26 -34 -85 -135 -52 -145 -81 hvcurveto
        endchar
      </CharString>
      <CharString index="2">
        rmoveto
        -38 callgsubr
        rlineto
        -198 -39 81 -68 134 hhcurveto
        128 89 58 168 33 hvcurveto
        79 407 rlineto
        -144 hlineto
        -79 -410 rlineto
        -59 callsubr
        endchar
      </CharString>
      <CharString index="3">
        -11 68 -69 -13 -3 1 8 40 rlinecurve
        68 352 rlineto
        16 -53 -58 8 -48 hhcurveto
        -205 -118 -189 -186 -106 45 -50 59 53 65 43 56 57 hvcurveto
        return
      </CharString>
      <CharString index="4">
        -81 callsubr
        -78 callgsubr
        -41 callsubr
      </CharString>
      <CharString index="5">
        rmoveto
        -56 -49 -39 -33 -41 hhcurveto
        -45 -30 30 66 -30 hvcurveto
        -102 -55 rlineto
        -97 37 65 -51 76 hhcurveto
        78 84 55 94 75 hvcurveto
        return
      </CharString>
      <CharString index="6">
        -66 callgsubr
        -23 callgsubr
        vhcurveto
        -68 -43 32 -54 50 29 2 callsubr
        rlinecurve
        -62 callgsubr
        return
      </CharString>
      <CharString index="7">
        -256 hlineto
        27 138 rlineto
        210 hlineto
        21 104 rlineto
        -210 hlineto
        27 138 rlineto
        249 hlineto
        23 120 rlineto
        -393 -32 callsubr
        return
      </CharString>
      <CharString index="8">
        rmoveto
        98 76 61 88 95 -102 40 -104 -60 hvcurveto
        -60 callgsubr
        -57 callsubr
        72 36 48 -22 -45 vvcurveto
        -30 -17 -28 -40 vhcurveto
        endchar
      </CharString>
      <CharString index="9">
        rmoveto
        -80 callsubr
        -43 callgsubr
        -13 -67 rlineto
        99 hlineto
        13 67 rlineto
        return
      </CharString>
      <CharString index="10">
        rmoveto
        -23 -19 15 44 100 52 125 59 17 28 -5 -11 31 hvcurveto
        -14 -72 -19 -98 -9 -45 rrcurveto
        -32 -37 -40 -21 -26 hhcurveto
        return
      </CharString>
      <CharString index="11">
        41 callgsubr
        73 220 41 132 39 153 rrcurveto
        -143 hlineto
        -21 -121 -15 -83 -27 -144 rrcurveto
        -5 hlineto
        -18 211 rlineto
        -81 hlineto
        -101 -211 rlineto
        -3 hlineto
        26 138 16 86 27 124 rrcurveto
        -138 hlineto
        -29 -193 -22 -213 -4 -99 rrcurveto
        128 hlineto
        104 204 rlineto
        endchar
      </CharString>
      <CharString index="12">
        rmoveto
        57 -24 75 49 56 84 15 88 rlinecurve
        -172 -2 5 -61 -11 -75 -25 -59 rlinecurve
        endchar
      </CharString>
      <CharString index="13">
        -97 callgsubr
        hintmask 01111000
        -106 callsubr
      </CharString>
      <CharString index="14">
        rmoveto
        -66 41 -99 75 -68 59 -79 -109 rcurveline
        78 -44 129 -57 77 -22 rrcurveto
        return
      </CharString>
      <CharString index="15">
        -11 callsubr
        hintmask 10001010
        -25 callsubr
        hintmask 01010100
        -34 callsubr
        hintmask 10100010
        -18 callgsubr
        hintmask 10001100
        -23 callsubr
        return
      </CharString>
      <CharString index="16">
        rmoveto
        215 48 81 115 116 vvcurveto
        92 -62 48 -89 -98 -76 -61 -88 -95 102 -40 104 60 vhcurveto
        -25 -45 -55 -43 -119 -20 rrcurveto
        94 195 rmoveto
        30 17 28 40 31 33 -20 -55 -5 0 -5 -1 -4 vhcurveto
        -72 -36 -48 22 45 vvcurveto
        endchar
      </CharString>
      <CharString index="17">
        -74 callgsubr
        53 53 30 59 53 hvcurveto
        -26 callgsubr
      </CharString>
      <CharString index="18">
        -11 71 -190 -30 -6 9 22 83 rlinecurve
        83 320 rlineto
        -115 hlineto
        -211 -48 10 -70 155 5 -64 -233 return
      </CharString>
      <CharString index="19">
        rmoveto
        82 -83 70 -43 59 vhcurveto
        hintmask 10100000
        -55 callsubr
        hintmask 01010000
        -39 callgsubr
        hintmask 10010000
        -3 -125 rlineto
        290 -3 85 82 90 vvcurveto
        return
      </CharString>
      <CharString index="20">
        -21 503 -85 callgsubr
      </CharString>
      <CharString index="21">
        -89 callsubr
        -71 callsubr
        return
      </CharString>
      <CharString index="22">
        rmoveto
        8 hlineto
        3 -80 2 -80 2 -81 rrcurveto
        -113 hlineto
        32 81 34 80 32 80 rrcurveto
        endchar
      </CharString>
      <CharString index="23">
        rmoveto
        -11 callgsubr
        -12 callsubr
        hintmask 01111000
        -28 -139 rlineto
        hintmask 10111000
        325 -63 129 108 105 -28 callgsubr
        return
      </CharString>
      <CharString index="24">
        20 89 rlineto
        -101 hlineto
        65 320 -107 -9 -12 -58 -110 -11 -15 -81 rlineto
        107 hlineto
        return
      </CharString>
      <CharString index="25">
        -70 callgsubr
        hintmask 11101100
        -79 callsubr
        hintmask 11011100
        12 callsubr
      </CharString>
      <CharString index="26">
        222 16 117 71 117 vvcurveto
        82 -59 51 -95 -177 -142 -176 -163 return
      </CharString>
      <CharString index="27">
        -92 -422 rlineto
        -4 hlineto
        -7 234 rlineto
        -77 hlineto
        -98 -234 rlineto
        -5 hlineto
        69 422 15 callsubr
        -39 -264 -23 -237 -3 -119 rrcurveto
        41 callgsubr
        114 265 rlineto
        endchar
      </CharString>
      <CharString index="28">
        rmoveto
        26 callsubr
        -209 143 -88 269 89 hvcurveto
        15 126 rlineto
        -12 callgsubr
        46 10 -33 -93 -2 callsubr
        8 -44 81 -123 hhcurveto
        endchar
      </CharString>
      <CharString index="29">
        -47 -209 rlineto
        131 -15 45 -20 -24 vvcurveto
        -25 -44 -22 -164 13 vhcurveto
        return
      </CharString>
      <CharString index="30">
        rmoveto
        38 24 -22 -31 -58 -75 -31 -126 -9 hvcurveto
        80 18 52 71 69 hhcurveto
        endchar
      </CharString>
      <CharString index="31">
        hintmask 00111000
        156 20 -103 252 rlineto
        80 52 57 69 86 vvcurveto
        107 -90 82 -296 -42 vhcurveto
        hintmask 01011000
        -119 -616 rlineto
        142 hlineto
        97 506 rlineto
        80 10 42 -24 -53 vvcurveto
        -54 -34 -50 -113 -54 vhcurveto
        -1 vlineto
        return
      </CharString>
      <CharString index="32">
        733 -107 callgsubr
        return
      </CharString>
      <CharString index="33">
        -68 callsubr
        -8 callgsubr
        return
      </CharString>
      <CharString index="34">
        rmoveto
        -12 66 rlineto
        -135 -38 -35 13 72 6 0 5 6 vvcurveto
        168 27 61 90 91 vvcurveto
        hintmask 10011110
        67 -41 49 -71 -34 -33 -11 -19 -30 vhcurveto
        hintmask 11001110
        17 -35 -41 9 -37 hhcurveto
        -144 -104 -196 -188 -94 31 -41 56 49 46 30 44 43 hvcurveto
        32 -83 94 -30 172 108 rrcurveto
        hintmask 10101110
        -101 344 rmoveto
        16 5 -12 -18 -24 -16 -64 -78 -23 hvcurveto
        76 14 28 65 31 hhcurveto
        -252 -291 rmoveto
        -20 -8 23 41 hvcurveto
        hintmask 11001110
        103 41 123 47 12 14 -2 -11 17 vhcurveto
        -38 -64 -24 -85 -95 -3 0 -3 -2 vvcurveto
        hintmask 10101110
        -16 -13 -13 -9 -15 hhcurveto
        endchar
      </CharString>
      <CharString index="35">
        rmoveto
        -31 -22 19 51 75 43 107 59 16 27 -6 -19 35 hvcurveto
        -21 -57 -16 -67 -5 -64 rrcurveto
        -26 -30 -29 -13 -26 hhcurveto
        204 -211 rmoveto
        31 62 -30 80 112 3 0 3 2 vvcurveto
        return
      </CharString>
      <CharString index="36">
        -52 callsubr
        -7 24 47 10 hvcurveto
        return
      </CharString>
      <CharString index="37">
        rmoveto
        31 63 -19 106 -4 80 rrcurveto
        60 102 37 123 56 vvcurveto
        25 -61 15 -35 -44 -71 -153 -161 -5 vhcurveto
        -32 -39 -37 -13 -24 hhcurveto
        return
      </CharString>
      <CharString index="38">
        rmoveto
        67 48 82 77 47 54 -126 67 rcurveline
        -30 -58 -57 -86 -43 -56 rrcurveto
        277 -47 rmoveto
        67 48 79 75 47 55 -130 59 rcurveline
        return
      </CharString>
      <CharString index="39">
        119 hlineto
        hintmask 11010000
        -13 callsubr
        hintmask 10110000
        -40 callgsubr
        return
      </CharString>
      <CharString index="40">
        -73 callsubr
        hintmask 1111101101000000
        -39 callsubr
        hintmask 1111101011000000
        29 callgsubr
        hintmask 1111101101000000
        -86 callsubr
      </CharString>
      <CharString index="41">
        rmoveto
        -18 67 -132 -46 -67 6 -19 83 rlinecurve
        185 140 106 147 128 vvcurveto
        79 -43 42 -68 return
      </CharString>
      <CharString index="42">
        rmoveto
        40 -32 33 -35 29 vhcurveto
        30 13 36 16 43 17 -30 58 rcurveline
        return
      </CharString>
      <CharString index="43">
        rmoveto
        99 49 100 73 21 18 -8 -16 14 vhcurveto
        -174 -193 rlineto
        -1 6 0 6 6 vvcurveto
        78 -115 rmoveto
        -20 -17 8 14 -13 hvcurveto
        172 190 rlineto
        -4 0 -4 -5 vvcurveto
        -99 -49 -100 -73 vhcurveto
        -18 -111 rmoveto
        -27 callgsubr
        42 -8 36 -15 31 hvcurveto
        69 76 -73 54 -55 -61 rlineto
        21 -32 -39 11 -46 hhcurveto
        -28 callsubr
        hvcurveto
        hintmask 01111000
        -43 8 -38 16 -31 vhcurveto
        -67 -74 rlineto
        hintmask 10111000
        72 -54 55 61 rlineto
        -20 31 39 -11 45 hhcurveto
        endchar
      </CharString>
      <CharString index="44">
        29 45 -81 65 hhcurveto
        56 61 60 79 48 hvcurveto
        -66 38 rlineto
        -49 -33 -24 -24 -16 hhcurveto
        return
      </CharString>
      <CharString index="45">
        -107 510 rmoveto
        19 16 -13 -33 -63 -55 -98 -115 -107 hvcurveto
        192 6 70 122 59 hhcurveto
        return
      </CharString>
      <CharString index="46">
        rmoveto
        -6 68 -186 -35 -27 20 20 80 rlinecurve
        46 210 rlineto
        174 hlineto
        20 107 rlineto
        -171 hlineto
        32 148 -104 -8 -94 -140 rlineto
        -59 hlineto
        -26 -107 rlineto
        91 hlineto
        -48 -218 -39 -172 114 -93 263 140 rlinecurve
        return
      </CharString>
      <CharString index="47">
        25 45 55 43 119 20 -22 87 rcurveline
        -215 -48 -81 -115 -116 vvcurveto
        return
      </CharString>
      <CharString index="48">
        16 -21 26 -45 callsubr
        return
      </CharString>
      <CharString index="49">
        -104 callsubr
        hintmask 11101000
        -39 callsubr
        hintmask 11011000
        29 callgsubr
        hintmask 11101000
        -86 callsubr
      </CharString>
      <CharString index="50">
        rmoveto
        57 101 rlineto
        -123 52 -57 38 41 vvcurveto
        hintmask 10010000
        56 111 32 75 vvcurveto
        35 -23 33 -65 24 vhcurveto
        hintmask 11001000
        90 24 34 48 41 vvcurveto
        hintmask 10100000
        49 -56 57 34 vvcurveto
        41 71 28 166 28 vhcurveto
        -25 114 rlineto
        -265 -63 -79 -83 -76 vvcurveto
        hintmask 11001000
        -64 61 -50 -35 vvcurveto
        -24 -28 -16 -107 -4 vhcurveto
        -22 -98 rlineto
        hintmask 10010000
        75 -13 38 -22 -29 vvcurveto
        hintmask 11000000
        -46 -117 -29 -92 vvcurveto
        -69 69 -52 195 -86 vhcurveto
        endchar
      </CharString>
      <CharString index="51">
        rmoveto
        -87 -60 -54 -63 -56 47 -46 77 87 61 55 63 55 -48 46 -77 hvcurveto
        return
      </CharString>
      <CharString index="52">
        -5 118 -91 -21 262 98 147 57 callgsubr
        hintmask 10111000
        65 callgsubr
        -49 -255 rlineto
        -55 hlineto
        -19 -98 rlineto
        55 hlineto
        hintmask 01111000
        -51 -262 rlineto
        hintmask 10111000
        25 callsubr
        -234 -127 rmoveto
        25 98 rlineto
        -89 hlineto
        28 147 rlineto
        89 6 38 -46 -92 vvcurveto
        36 callsubr
        29 150 rlineto
        endchar
      </CharString>
      <CharString index="53">
        694 -100 callsubr
        return
      </CharString>
      <CharString index="54">
        33 122 -256 -5 299 274 23 116 rlineto
        -401 hlineto
        -33 -122 250 5 -301 -274 -23 -116 rlineto
        endchar
      </CharString>
      <CharString index="55">
        rmoveto
        -361 hlineto
        -23 -115 76 callsubr
        hlineto
        return
      </CharString>
      <CharString index="56">
        12 -21 30 -21 30 -21 386 126 0 -20 hstemhm
        27 511 -151 151 hintmask 10001100
        357 -9 rmoveto
        155 18 -135 194 rlineto
        hintmask 01001010
        115 86 46 76 62 vvcurveto
        57 -37 37 -64 -61 -65 -34 -65 -66 vhcurveto
        55 284 46 callgsubr
        hintmask 00110010
        61 312 rlineto
        50 47 42 33 39 hhcurveto
        23 12 -11 -20 -34 -36 -54 -126 -82 hvcurveto
        return
      </CharString>
      <CharString index="57">
        -83 callgsubr
        -44 callgsubr
        endchar
      </CharString>
      <CharString index="58">
        -15 callsubr
        hintmask 01111000
        33 callgsubr
        110 568 -137 -10 -34 -177 -35 callgsubr
      </CharString>
      <CharString index="59">
        873 -102 callgsubr
        return
      </CharString>
      <CharString index="60">
        36 callgsubr
        47 callgsubr
        hintmask 10111000
        421 -106 -75 callsubr
        hintmask 01111000
        22 callsubr
        return
      </CharString>
      <CharString index="61">
        -13 131 -130 119 295 116 return
      </CharString>
      <CharString index="62">
        -14 132 -131 118 402 -20 26 -20 return
      </CharString>
      <CharString index="63">
        -33 -162 rlineto
        -111 hlineto
        -17 -88 rlineto
        return
      </CharString>
      <CharString index="64">
        -32 -109 -31 -69 -45 -82 -8 -73 rcurveline
        194 hlineto
        return
      </CharString>
      <CharString index="65">
        -33 callsubr
        -7 callgsubr
        hintmask 10010111
        -71 callgsubr
        -68 callsubr
        hintmask 01010111
        69 callsubr
        hintmask 01101011
        -26 callgsubr
      </CharString>
      <CharString index="66">
        -33 callsubr
        hintmask 10101100
        -76 callsubr
        hintmask 01011100
        -90 callgsubr
      </CharString>
      <CharString index="67">
        -100 357 -129 -4 -121 -618 rlineto
        135 hlineto
        64 355 rlineto
        5 hlineto
        return
      </CharString>
      <CharString index="68">
        63 31 53 29 43 28 rrcurveto
        46 -51 52 -45 -36 vvcurveto
        -36 -58 -10 -176 9 vhcurveto
        return
      </CharString>
      <CharString index="69">
        73 380 15 callsubr
        -71 -367 return
      </CharString>
      <CharString index="70">
        5 callsubr
        hintmask 10011000
        340 -10 rmoveto
        -76 callgsubr
        return
      </CharString>
      <CharString index="71">
        24 122 rlineto
        -263 hlineto
        96 498 rlineto
        -146 -32 callsubr
        return
      </CharString>
      <CharString index="72">
        rlineto
        1 -12 -12 1 -11 hhcurveto
        -199 -119 -187 -179 -113 49 -55 60 52 62 43 53 55 hvcurveto
        -6 -101 50 -31 173 97 rrcurveto
        endchar
      </CharString>
      <CharString index="73">
        -59 callgsubr
        23 callgsubr
        return
      </CharString>
      <CharString index="74">
        281.5 115.5 return
      </CharString>
      <CharString index="75">
        0 -30 callsubr
        return
      </CharString>
      <CharString index="76">
        -75 callsubr
        hintmask 01111100
        71 callgsubr
      </CharString>
      <CharString index="77">
        -11 68 -65 -16 -3 4 8 39 rlinecurve
        return
      </CharString>
      <CharString index="78">
        -69 callsubr
        302 -424 -103 callgsubr
      </CharString>
      <CharString index="79">
        138 -237 65 91 vvcurveto
        34 30 25 42 46 30 -23 -64 18 vhcurveto
        return
      </CharString>
      <CharString index="80">
        163 116 153 173 return
      </CharString>
      <CharString index="81">
        -3 -97 61 -27 158 95 rrcurveto
        endchar
      </CharString>
      <CharString index="82">
        4 callsubr
        -15 callgsubr
        return
      </CharString>
      <CharString index="83">
        -12 118 79 74 151 112 return
      </CharString>
      <CharString index="84">
        8 callsubr
        -15 1 -14 1 -14 return
      </CharString>
      <CharString index="85">
        -34 callgsubr
        hintmask 00111100
        return
      </CharString>
      <CharString index="86">
        88 -88 89 161 18 callgsubr
        hstemhm
        return
      </CharString>
      <CharString index="87">
        hlineto
        -22 -113 rlineto
        return
      </CharString>
      <CharString index="88">
        26 callgsubr
        hintmask 01110000
        -119 -615 90 callsubr
        25 callsubr
        -143 -14 rmoveto
        36 callsubr
        76 395 rlineto
        89 6 38 -46 -92 vvcurveto
        endchar
      </CharString>
      <CharString index="89">
        67 331 rlineto
        38 39 33 20 17 callgsubr
        return
      </CharString>
      <CharString index="90">
        -71 callsubr
        88 callgsubr
        return
      </CharString>
      <CharString index="91">
        hstem
        42 134 208 131 vstem
        return
      </CharString>
      <CharString index="92">
        hstem
        43 151 199 151 vstem
        return
      </CharString>
      <CharString index="93">
        -10 124 -84 21 callgsubr
        86 151 hintmask 10111000
        return
      </CharString>
      <CharString index="94">
        -24 callgsubr
        -16 callgsubr
        return
      </CharString>
      <CharString index="95">
        -203 -64 -80 37 130 vvcurveto
        114 60 142 90 return
      </CharString>
      <CharString index="96">
        117 -21 -53 65 -117 hhcurveto
        -147 -97 -92 -104 hvcurveto
        return
      </CharString>
      <CharString index="97">
        hstemhm
        55 142 113 142 return
      </CharString>
      <CharString index="98">
        -10 122 -122 125 hstemhm
        184 235 -72 138 hintmask 10010000
        return
      </CharString>
      <CharString index="99">
        -122 -26 36 -62 78 hhcurveto
        return
      </CharString>
      <CharString index="100">
        71 366 rlineto
        -135 hlineto
        return
      </CharString>
      <CharString index="101">
        -212 -22 callsubr
        return
      </CharString>
      <CharString index="102">
        48 callgsubr
        389 132 -10 -20 30 -20 return
      </CharString>
      <CharString index="103">
        rmoveto
        263 191 95 151 168 vvcurveto
        124 -54 132 -136 165 vhcurveto
        -108 -76 rlineto
        121 -139 41 -106 -102 vvcurveto
        -134 -61 -120 -237 -165 vhcurveto
        endchar
      </CharString>
      <CharString index="104">
        69 -22 rcurveline
        0 callgsubr
        endchar
      </CharString>
      <CharString index="105">
        hstem
        4 callgsubr
        vstem
        return
      </CharString>
      <CharString index="106">
        1 callsubr
        27 callgsubr
        hintmask 11011100
        return
      </CharString>
      <CharString index="107">
        55 28 26 33 24 hhcurveto
        22 10 -29 -81 -4 hvcurveto
        return
      </CharString>
      <CharString index="108">
        -169 2 callgsubr
        return
      </CharString>
      <CharString index="109">
        rmoveto
        -16 callsubr
        return
      </CharString>
      <CharString index="110">
        46 57 152 99 vvcurveto
        55 -21 48 -71 return
      </CharString>
      <CharString index="111">
        37 141 196 141 return
      </CharString>
      <CharString index="112">
        -6 callgsubr
        77 86 return
      </CharString>
      <CharString index="113">
        45 callsubr
        395 498 -10 callsubr
        return
      </CharString>
      <CharString index="114">
        15 callgsubr
        28 callsubr
        return
      </CharString>
      <CharString index="115">
        vvcurveto
        -82 75 -21 144 89 vhcurveto
        return
      </CharString>
      <CharString index="116">
        hstemhm
        303 146 -91 148 return
      </CharString>
      <CharString index="117">
        -50 -89 -54 -140 -77 vhcurveto
        return
      </CharString>
      <CharString index="118">
        0 124.5 371 124.5 return
      </CharString>
      <CharString index="119">
        820 -52 callgsubr
        return
      </CharString>
      <CharString index="120">
        -91 -56 -119 -59 vhcurveto
        -134 -267 rmoveto
        82 callgsubr
        -1 14 13 -1 12 hhcurveto
        199 119 187 179 113 -49 55 -60 return
      </CharString>
      <CharString index="121">
        -21 callsubr
        hintmask 01111100
        return
      </CharString>
      <CharString index="122">
        -13 123 510 -20 return
      </CharString>
      <CharString index="123">
        -13 109 415 -20 hstem
        258 145 vstem
        return
      </CharString>
      <CharString index="124">
        26 hhcurveto
        25 10 -17 -26 hvcurveto
        return
      </CharString>
      <CharString index="125">
        86.5 return
      </CharString>
      <CharString index="126">
        -21 620 -20 return
      </CharString>
      <CharString index="127">
        -12 118 297 118 60 callsubr
        return
      </CharString>
      <CharString index="128">
        -21 503 120 hstemhm
        97 146 return
      </CharString>
      <CharString index="129">
        -223 -146 return
      </CharString>
      <CharString index="130">
        hstemhm
        340 147 return
      </CharString>
      <CharString index="131">
        rmoveto
        -326 67 callgsubr
        186 hlineto
        -127 -660 rlineto
        -186 67 callgsubr
        325 hlineto
        endchar
      </CharString>
      <CharString index="132">
        91 4 -20 232.5 17 callsubr
        hstemhm
        return
      </CharString>
      <CharString index="133">
        rmoveto
        189 -122 80 -270 -43 vhcurveto
        return
      </CharString>
      <CharString index="134">
        hstemhm
        52 140 145 119 return
      </CharString>
      <CharString index="135">
        hstem
        155 144 vstem
        return
      </CharString>
      <CharString index="136">
        105 71 51 65 hvcurveto
        return
      </CharString>
      <CharString index="137">
        119.5 return
      </CharString>
      <CharString index="138">
        10 callgsubr
        hintmask 11110111
        -1 -82 rlineto
        -100 16 callsubr
        return
      </CharString>
      <CharString index="139">
        rmoveto
        100 95 -163 181 250 173 -78 109 -261 -203 -34 -139 rlineto
        endchar
      </CharString>
      <CharString index="140">
        310 -69 rmoveto
        -10 66 -75 -16 -3 1 7 39 rlinecurve
        return
      </CharString>
      <CharString index="141">
        rmoveto
        44 callgsubr
        43 callsubr
        return
      </CharString>
      <CharString index="142">
        -126 -162 -121 -158 -213 vhcurveto
        78 13 rmoveto
        165 85 122 111 81 62 return
      </CharString>
      <CharString index="143">
        -9 122 -95 -21 508 128 return
      </CharString>
      <CharString index="144">
        88 162 18 callgsubr
        hstem
        return
      </CharString>
      <CharString index="145">
        108.5 226 147 hstem
        63 137 131 88 31 117 vstem
        419 return
      </CharString>
      <CharString index="146">
        hmoveto
        40 175 68 callsubr
        hlineto
        -40 -175 rlineto
        return
      </CharString>
      <CharString index="147">
        -30 -58 -51 -78 -43 -55 rrcurveto
        return
      </CharString>
      <CharString index="148">
        132 hlineto
        return
      </CharString>
      <CharString index="149">
        hhcurveto
        49 1 -58 -68 -38 hvcurveto
        59 -20 rlineto
        147 119 -7 146 -126 hhcurveto
        return
      </CharString>
      <CharString index="150">
        -13 130 -128 115 302 115 return
      </CharString>
      <CharString index="151">
        0 9 7 6 9 9 7 -6 49 callgsubr
        return
      </CharString>
      <CharString index="152">
        21 callsubr
        65 86 return
      </CharString>
      <CharString index="153">
        -138 -10 -135 -696 rlineto
        136 hlineto
        return
      </CharString>
      <CharString index="154">
        hstemhm
        49 145 196 135 return
      </CharString>
      <CharString index="155">
        -12 117 -84 -21 return
      </CharString>
      <CharString index="156">
        0 hflex1
        return
      </CharString>
      <CharString index="157">
        43 callgsubr
        66 callgsubr
        return
      </CharString>
      <CharString index="158">
        71 hstem
        39 78 339 78 vstem
        39 242 rmoveto
        -152 83 -83 121 return
      </CharString>
      <CharString index="159">
        -171 127 452 112 6 -20 return
      </CharString>
      <CharString index="160">
        0 157 348 -20 return
      </CharString>
      <CharString index="161">
        23 callgsubr
        hintmask 00111110
        return
      </CharString>
      <CharString index="162">
        hstemhm
        46 29 callsubr
        return
      </CharString>
      <CharString index="163">
        92 7 -20 232 90 hstemhm
        return
      </CharString>
      <CharString index="164">
        119 hstemhm
        391 143 return
      </CharString>
      <CharString index="165">
        -5 118 -91 -21 507 57 callgsubr
        hintmask 10110000
        return
      </CharString>
      <CharString index="166">
        -16 callsubr
        29 47 36 128 27 vhcurveto
        return
      </CharString>
      <CharString index="167">
        195 183 -84 89 -195 -195 -30 -139 rlineto
        endchar
      </CharString>
      <CharString index="168">
        hstem
        50 144 204 135 vstem
        return
      </CharString>
      <CharString index="169">
        43 218 rlineto
        32 36 41 23 27 hhcurveto
        26 21 -23 -56 hvcurveto
        return
      </CharString>
      <CharString index="170">
        -23 callsubr
        endchar
      </CharString>
      <CharString index="171">
        141 -41 132 -115 135 -91 127 hintmask 11000000
        return
      </CharString>
      <CharString index="172">
        534 390 26 callgsubr
        return
      </CharString>
      <CharString index="173">
        hstemhm
        31 138 140 136 return
      </CharString>
      <CharString index="174">
        hlineto
        -22 -110 rlineto
        return
      </CharString>
      <CharString index="175">
        103 121 101 return
      </CharString>
      <CharString index="176">
        10 hlineto
        0 6 -1 3 -4 -3 -2 -2 49 callgsubr
        return
      </CharString>
      <CharString index="177">
        522 46 -11 callsubr
        return
      </CharString>
      <CharString index="178">
        22 callsubr
        endchar
      </CharString>
      <CharString index="179">
        -21 26 -21 return
      </CharString>
      <CharString index="180">
        -22 callsubr
        hstem
        return
      </CharString>
      <CharString index="181">
        hintmask 010000000000000000000000000000000000000000000000
        return
      </CharString>
      <CharString index="182">
        90 -8 -20 244 95 hstemhm
        return
      </CharString>
      <CharString index="183">
        -95 -206 return
      </CharString>
      <CharString index="184">
        -169 -84 rmoveto
        195 195 30 139 return
      </CharString>
      <CharString index="185">
        90 216 95 hstem
        return
      </CharString>
      <CharString index="186">
        146 86 return
      </CharString>
      <CharString index="187">
        74 -79 111 168 129 193 return
      </CharString>
      <CharString index="188">
        265 101 rmoveto
        -16 -30 5 11 -33 hvcurveto
        return
      </CharString>
      <CharString index="189">
        30 154 rlineto
        return
      </CharString>
      <CharString index="190">
        rlineto
        93 callsubr
        return
      </CharString>
      <CharString index="191">
        rlineto
        170 return
      </CharString>
      <CharString index="192">
        vhcurveto
        hintmask 01110000
        -16 -129 90 callsubr
        return
      </CharString>
      <CharString index="193">
        109 -84 109.5 hstemhm
        return
      </CharString>
      <CharString index="194">
        122 72 return
      </CharString>
      <CharString index="195">
        -13 -94 rlineto
        return
      </CharString>
      <CharString index="196">
        -4 3 -109 -13 return
      </CharString>
      <CharString index="197">
        -220 79 107 66 return
      </CharString>
      <CharString index="198">
        rlineto
        140 hlineto
        return
      </CharString>
      <CharString index="199">
        -10 111 return
      </CharString>
      <CharString index="200">
        rmoveto
        -11 68 return
      </CharString>
</ttFont>
